<svg xmlns="http://www.w3.org/2000/svg" width="366.151" height="444.731" viewBox="0 0 366.151 444.731">
  <g id="Group_14" data-name="Group 14" transform="translate(-83.36 4.004)">
    <path id="Path_1" data-name="Path 1" d="M0,475.832c14.357-12.267,35.215-25.655,60.549-25.8,35.144-.2,48.976,25.247,74.047,17.818,23.2-6.873,37.045-38.03,40.923-62.246,4.378-27.353-10.309-32.819-6.16-65.637,4.705-37.212,22.145-56.994,13.976-65.243-5.363-5.413-16.844-1.3-25.272,1.716-31.6,11.319-56.872,39.622-54.471,42.875,3.526,4.783,75.027-33.43,75.579-72.784.156-11.028-5.28-20.794-7.718-25.174-8.139-14.625-25.694-31.783-37.932-26.388-5.681,2.506-8.8,9.248-9.665,14.2-3.576,20.363,25.586,40.346,30.594,36.436,3.37-2.63-.857-18.721-9.961-28.7-20.162-22.1-59.122-10.107-62.1-9.147-16.934,5.468-30.017,16.2-29.094,18.691.816,2.195,12.125-3.148,31.352-2.2,15.014.74,21.163,4.646,23.591,6.387,7.461,5.349,13.106,14.425,11.237,16.982-2.586,3.542-16.166-10.073-37.034-8.7a51.737,51.737,0,0,0-26.97,10.251c-15.658,11.818-20.072,29.5-23.431,42.953-5.173,20.727-5.244,44.9.367,46.328,4.925,1.258,8.476-16.48,24.448-23.328,13.069-5.6,27.561-.958,27.648,1.661.076,2.3-11.01,2.117-25.463,10.726-8.071,4.808-18.237,10.865-21.222,21.646-1.876,6.776.623,14,5.624,28.459,3.8,10.984,5.7,16.476,9.869,20.3,7.947,7.292,21.422,10.02,30.074,4.105,1.567-1.072,2.916-2.387,8.485-12.758,13.01-24.228,13.275-31.268,13.149-34.747-.149-4.032-.389-10.68-4.985-13.649-4.27-2.76-10.783-1.365-14.276,2.314-5.457,5.748-3.1,16.592.174,22.757,4.437,8.366,9.745,7.127,14.171,14.648,6.139,10.435-1.537,20.423,2.957,24.271,7.58,6.488,36.4-7.924,48.921-32.26,1.306-2.536,14.774-29.357,5.855-43.915-1.48-2.415-5.157-7.072-4.02-12.467.657-3.125,3.028-6.964,5.878-7.491,7.573-1.4,22.526,19.875,20.086,39.922-2.3,18.863-18.936,27.962-16.292,32.232,2.9,4.687,26.684-.222,39.838-17.369,15.055-19.632,11.88-49.707-.046-67.243-3.028-4.456-9.5-12.334-11.507-11.085-4.7,2.928,11.328,58.341,29.456,57.8,9.91-.293,19.891-17.289,20.574-31.824,1.157-24.672-24.617-39.382-29.181-41.842-15.014-8.094-20.636-2.286-31.563-8.978a54.758,54.758,0,0,1-6.149-4.893c-12.061-11.312-19.161-38.232-15.562-66.352,5.054-39.5,30.679-77.164,46.483-75.041,4.586.616,7.157,4.469,14.446,4.536,8.719.078,16.02-5.331,20.776-9.839-1.759-39.077,29.625-69.873,60.451-67.909,26.775,1.7,50.293,27.946,49.638,61.481-29.492-19.445-58.034-18.551-68.336-4.886-5.564,7.379-7.642,20.915-1.862,27.7,11.589,13.6,43.4-13.269,62.744.925,16.8,12.332,13.908,48.114,9,49.766-3.464,1.164-5.823-15.369-21.529-25.536-14.144-9.159-35.868-11.051-43.022-.994-2.563,3.6-4.172,10.022-1.785,15.087,5.942,12.6,30.115,3.045,55.885,19.635,7.033,4.527,8.978,7.651,9.864,9.356,7.869,15.117-1.938,44.525-17.894,47.581-15.662,3-34.237-19.969-30.2-32.431,1.551-4.783,6.678-8.774,11.647-8.861,14.721-.257,35.02,33.652,23.641,56.451-5.246,10.506-16.469,20.574-24.489,18.388-6.994-1.906-6.091-11.562-15.2-16.462-8.87-4.772-15.071,1.507-23.433-.621-21.021-5.351-32.8-58-19.346-68.638,4.561-3.608,12.519-2.786,16.819,1.429,12.767,12.513,1.592,63.051-22.285,68.081-16.322,3.439-37.634-15.094-38.621-33.3-1.214-22.439,28.7-39.57,22.556-53.134-1.643-3.626-5.647-6.517-9.36-6.252-12.936.921-14.861,39.941-24.51,40.431-11.468.582-29.041-43.84-14.1-65.069,1.093-1.553,7.871-11.188,17.085-11,4.343.089,9.928,2.373,11.585,6.524,5.251,13.159-27.167,49.59-41.049,43.9-11.983-4.912-15.837-43.524,2.99-64.514,16.95-18.9,46.112-16.629,63.129-7.129,14.737,8.226,21.016,22.026,33.393,49.949a271.047,271.047,0,0,1,15.193,44.234" transform="translate(89 -40.743)" fill="none" stroke="#000" stroke-linecap="round" stroke-miterlimit="10" stroke-width="8"/>
  </g>
</svg>
