<svg xmlns="http://www.w3.org/2000/svg" width="382.543" height="491.53" viewBox="0 0 382.543 491.53">
  <g id="Group_24" data-name="Group 24" transform="translate(3.531 2.504)">
    <path id="Path_1" data-name="Path 1" d="M0,526.238c15.162-13.689,37.19-28.627,63.946-28.793,37.115-.228,51.723,28.172,78.2,19.882,24.5-7.669,39.123-42.436,43.219-69.458,4.623-30.522-10.887-36.621-6.506-73.241,4.969-41.523,23.388-63.6,14.76-72.8-5.664-6.04-17.789-1.452-26.69,1.915-33.377,12.63-60.063,44.213-57.527,47.843,3.723,5.337,79.236-37.3,79.819-81.217.165-12.306-5.577-23.2-8.151-28.09-8.6-16.319-27.135-35.465-40.06-29.445-6,2.8-9.29,10.32-10.207,15.846-3.777,22.722,27.022,45.02,32.31,40.657,3.559-2.935-.9-20.89-10.519-32.027C131.3,212.642,90.157,226.029,87.014,227.1c-17.884,6.1-31.7,18.08-30.726,20.856.861,2.449,12.806-3.512,33.111-2.454,15.856.826,22.35,5.184,24.914,7.127,7.88,5.969,13.841,16.1,11.867,18.949-2.731,3.952-17.073-11.24-39.111-9.711-14.722,1.02-25.4,8.983-28.483,11.439-16.536,13.188-21.2,32.922-24.745,47.929-5.463,23.129-5.538,50.1.387,51.695,5.2,1.4,8.952-18.39,25.819-26.03,13.8-6.253,29.107-1.068,29.2,1.853.08,2.572-11.627,2.362-26.891,11.968-8.523,5.366-19.26,12.124-22.413,24.154-1.981,7.561.658,15.626,5.94,31.756,4.014,12.257,6.022,18.384,10.423,22.651,8.393,8.137,22.623,11.181,31.761,4.581,1.655-1.2,3.08-2.664,8.961-14.236,13.74-27.035,14.02-34.89,13.887-38.773-.157-4.5-.411-11.917-5.265-15.23-4.51-3.08-11.388-1.523-15.077,2.582-5.763,6.414-3.271,18.515.184,25.394,4.686,9.335,10.292,7.953,14.966,16.345,6.484,11.644-1.623,22.789,3.123,27.083,8.006,7.239,38.439-8.842,51.665-36,1.379-2.83,15.6-32.758,6.184-49-1.563-2.694-5.446-7.891-4.246-13.911.694-3.487,3.2-7.771,6.208-8.359,8-1.559,23.79,22.178,21.213,44.548-2.427,21.048-20,31.2-17.206,35.966,3.063,5.23,28.181-.248,42.073-19.381,15.9-21.907,12.547-55.465-.048-75.033-3.2-4.972-10.033-13.763-12.152-12.37-4.967,3.267,11.964,65.1,31.108,64.5,10.466-.327,21.007-19.292,21.728-35.511,1.222-27.531-26-43.944-30.818-46.69-15.856-9.031-21.794-2.551-33.334-10.018a58.4,58.4,0,0,1-6.494-5.46c-12.738-12.623-20.235-42.661-16.435-74.039,5.337-44.075,32.4-86.1,49.091-83.735,4.844.688,7.558,4.987,15.256,5.061,9.208.087,16.919-5.948,21.941-10.979-1.858-43.6,31.287-77.968,63.842-75.777,28.277,1.9,53.114,31.184,52.423,68.6-31.147-21.7-61.289-20.7-72.169-5.452-5.877,8.234-8.071,23.338-1.967,30.907,12.24,15.176,45.839-14.806,66.264,1.033,17.746,13.76,14.688,53.689,9.5,55.532-3.658,1.3-6.15-17.15-22.737-28.494-14.937-10.22-37.88-12.331-45.435-1.109-2.707,4.018-4.406,11.184-1.885,16.835,6.276,14.062,31.8,3.4,59.02,21.909,7.427,5.051,9.482,8.538,10.418,10.44,8.31,16.869-2.047,49.683-18.9,53.093-16.541,3.346-36.157-22.283-31.892-36.189,1.638-5.337,7.052-9.79,12.3-9.888,15.547-.286,36.985,37.551,24.968,62.991-5.54,11.723-17.393,22.957-25.863,20.519-7.386-2.127-6.433-12.9-16.057-18.369-9.368-5.325-15.917,1.682-24.748-.693-22.2-5.971-34.635-64.719-20.431-76.59,4.817-4.026,13.222-3.108,17.763,1.6,13.483,13.962,1.681,70.355-23.535,75.969-17.238,3.837-39.745-16.843-40.788-37.16-1.282-25.038,30.312-44.154,23.821-59.289-1.735-4.047-5.964-7.272-9.885-6.976-13.662,1.028-15.694,44.568-25.885,45.115-12.111.649-30.67-48.919-14.9-72.607,1.154-1.733,8.313-12.485,18.044-12.272,4.587.1,10.485,2.648,12.235,7.28,5.545,14.683-28.691,55.335-43.352,48.988-12.656-5.481-16.725-48.566,3.157-71.989,17.9-21.091,48.7-18.556,66.67-7.955,15.564,9.179,22.2,24.578,35.267,55.736a314.365,314.365,0,0,1,16.045,49.358" transform="translate(0 -40.743)" fill="none" stroke="#fff" stroke-linecap="round" stroke-miterlimit="10" stroke-width="5"/>
  </g>
</svg>
