<svg xmlns="http://www.w3.org/2000/svg" width="388.788" height="362.582" viewBox="0 0 388.788 362.582">
  <g id="Group_2" data-name="Group 2" transform="translate(-78.588 -246.355)">
    <path id="Path_2" data-name="Path 2" d="M338.33,362.2A102.668,102.668,0,0,0,303.3,334.046a101.643,101.643,0,0,0-30.363-9.284,149.112,149.112,0,0,1-29.78,13.063c-10.913,3.421-24.082,7.549-41.279,7.314-13.76-.188-24.147-3.085-39.07,2.5-1.9.711-4.607,1.075-6.975,3.134-4.652,4.043-6.35,11.769-6.352,11.769h0c.009,0,59.77,29.931,112.81,27.093C281.434,388.607,307.623,382.892,338.33,362.2Z" transform="translate(122.397 136.247)" fill="none" stroke="#1d0f16" stroke-linecap="round" stroke-linejoin="round" stroke-width="9"/>
    <path id="Path_3" data-name="Path 3" d="M358.338,351.508q-109.809-10.373-219.62-20.749" transform="translate(102.554 147.303)" fill="none" stroke="#1d0f16" stroke-miterlimit="10" stroke-width="9"/>
    <path id="Path_4" data-name="Path 4" d="M83.088,309.953c11.215-1.237,65.1-5.985,113.219,31.8,39.081,30.7,50.992,71.1,54.294,84.287A189.678,189.678,0,0,1,83.088,309.953Z" transform="translate(0 107.346)" fill="none" stroke="#1d0f16" stroke-linecap="round" stroke-linejoin="round" stroke-width="9"/>
    <line id="Line_1" data-name="Line 1" x2="167.513" y2="116.092" transform="translate(83.088 417.298)" fill="none" stroke="#1d0f16" stroke-miterlimit="10" stroke-width="9"/>
    <path id="Path_5" data-name="Path 5" d="M135.349,337.883" transform="translate(96.343 160.436)" fill="#1d0f16" stroke="#1d0f16" stroke-linecap="round" stroke-linejoin="round" stroke-width="3"/>
    <path id="Path_6" data-name="Path 6" d="M138.506,382.544c12.176,4.746,71.033,26.211,136.2-1.644,52.926-22.623,78.361-64.252,86.01-78.02a219.69,219.69,0,0,0-222.208,79.663Z" transform="translate(102.163 85.992)" fill="none" stroke="#1d0f16" stroke-linecap="round" stroke-linejoin="round" stroke-width="9"/>
    <line id="Line_2" data-name="Line 2" y1="79.664" x2="222.208" transform="translate(240.668 388.872)" fill="none" stroke="#1d0f16" stroke-miterlimit="10" stroke-width="9"/>
    <path id="Path_7" data-name="Path 7" d="M288.04,250.855c-12.841,2.426-74.133,15.415-114.633,73.567-32.9,47.233-32.407,96.016-31.6,111.744A221.216,221.216,0,0,0,240,367.231,221.581,221.581,0,0,0,288.04,250.855Z" transform="translate(107.827 0)" fill="none" stroke="#1d0f16" stroke-linecap="round" stroke-linejoin="round" stroke-width="9"/>
    <path id="Path_8" data-name="Path 8" d="M188.028,303.846c25.216,7.339,36.926,27.8,39.03,31.648,18.528,33.906,4.609,81.81-14.522,87-2,.54-6.037-.3-14.038-2-23.618-5.01-35.353-7.6-44.071-15.252a82.7,82.7,0,0,1-15.216-18.5c-.131.119,5.286,11.508,15.216,18.5,12.565,8.846,32.1,10.143,48.581.662,18.207-10.473,30.895-33.951,24.892-49.77-12.853-33.852-105.678-18.173-107.427-32.791C119.369,314.136,154.546,294.1,188.028,303.846Z" transform="translate(68.871 92.878)" fill="#1d0f16" stroke="#1d0f16" stroke-miterlimit="10" stroke-width="2"/>
    <ellipse id="Ellipse_1" data-name="Ellipse 1" cx="68.012" cy="74.783" rx="68.012" ry="74.783" transform="translate(160.927 396.723)" fill="#3c2935" stroke="#1d0f16" stroke-miterlimit="10" stroke-width="2"/>
    <path id="Path_9" data-name="Path 9" d="M199.069,381.668c1.39,23.157-20.894,51.752-51.754,51.752A51.753,51.753,0,0,1,95.56,381.668c0-31.077,29.567-53.409,51.754-51.754,10.982.819,19.154,7.439,26.55,13.427S197.937,362.836,199.069,381.668Z" transform="translate(22.992 145.586)" fill="#3c2935" stroke="#1d0f16" stroke-miterlimit="10" stroke-width="2"/>
    <circle id="Ellipse_2" data-name="Ellipse 2" cx="51.754" cy="51.754" r="51.754" transform="translate(215.144 494.535)" fill="#3c2935" stroke="#1d0f16" stroke-miterlimit="10" stroke-width="2"/>
    <path id="Path_10" data-name="Path 10" d="M131.567,314.29c-13.643,10.541-19.211,27.755-12.437,38.447s23.319,10.817,36.96.276,19.211-27.755,12.437-38.447S145.207,303.749,131.567,314.29Z" transform="translate(61.127 102.514)" fill="#493250"/>
    <ellipse id="Ellipse_3" data-name="Ellipse 3" cx="23.223" cy="16.772" rx="23.223" ry="16.772" transform="matrix(0.766, -0.643, 0.643, 0.766, 119.756, 516.31)" fill="#493250"/>
    <ellipse id="Ellipse_4" data-name="Ellipse 4" cx="23.223" cy="16.772" rx="23.223" ry="16.772" transform="matrix(0.766, -0.643, 0.643, 0.766, 217.522, 529.332)" fill="#493250"/>
    <path id="Path_11" data-name="Path 11" d="M135.018,360.944c-.739-.7,6.483-12.406,19.475-19.248,17.851-9.406,49.246-12.142,69.307,9.091a55.01,55.01,0,0,1,11.8,55.6c-6.264,17.8-21.667,31.668-40,35.174-23.669,4.527-42.081-10.163-48.462-15.253a84.484,84.484,0,0,1-16.728-18.5c-.145.119,5.809,11.5,16.728,18.5,13.819,8.846,35.3,10.143,53.418.663,17.271-9.034,31.406-28.64,27.369-49.77-3.9-20.445-22.811-30.323-24.508-31.173-18.827-9.463-37.426-3.284-41.893-1.8C144.825,349.777,135.765,361.654,135.018,360.944Z" transform="translate(87.245 154.43)" fill="#1d0f16" stroke="#1d0f16" stroke-miterlimit="10" stroke-width="2"/>
    <path id="Path_12" data-name="Path 12" d="M170.987,338.407" transform="translate(162.041 161.402)" fill="none" stroke="#1d0f16" stroke-miterlimit="10" stroke-width="2"/>
    <path id="Path_13" data-name="Path 13" d="M173.542,352.091" transform="translate(166.751 186.628)" fill="#1d0f16" stroke="#1d0f16" stroke-miterlimit="10" stroke-width="2"/>
    <path id="Path_14" data-name="Path 14" d="M173.63,359.237" transform="translate(166.914 199.802)" fill="#1d0f16" stroke="#1d0f16" stroke-miterlimit="10" stroke-width="2"/>
    <path id="Path_15" data-name="Path 15" d="M177.434,365.22" transform="translate(173.926 210.831)" fill="#1d0f16" stroke="#1d0f16" stroke-miterlimit="10" stroke-width="2"/>
    <path id="Path_16" data-name="Path 16" d="M180.378,366.348" transform="translate(179.354 212.911)" fill="#1d0f16" stroke="#1d0f16" stroke-miterlimit="10" stroke-width="2"/>
    <ellipse id="Ellipse_5" data-name="Ellipse 5" cx="9.027" cy="6.519" rx="9.027" ry="6.519" transform="matrix(0.766, -0.643, 0.643, 0.766, 232.647, 528.232)" fill="#fff"/>
    <ellipse id="Ellipse_6" data-name="Ellipse 6" cx="9.027" cy="6.519" rx="9.027" ry="6.519" transform="matrix(0.766, -0.643, 0.643, 0.766, 131.493, 515.039)" fill="#fff"/>
    <ellipse id="Ellipse_7" data-name="Ellipse 7" cx="9.646" cy="6.982" rx="9.646" ry="6.982" transform="translate(192.889 429.122) rotate(-43.7)" fill="#fff"/>
    <path id="Path_17" data-name="Path 17" d="M98.207,358.8c-.813-.8,11.725-19.745,28.647-27.457,3.722-1.695,12.425-3.679,26.935,0,6.651,1.689,11.951,4.908,16.106,7.436,1.791,1.089,9.381,5.7,13.879,10.655,12.329,13.583,11.064,40.4-.387,58.869-2.505,4.035-7.967,12.594-18.7,17.777-16.643,8.036-37.125,3.674-49.255-6.406-12.517-10.4-18.25-28.642-18.875-28.3-.162.088.264,1.038.4,1.541,1.234,4.618,5.687,18.517,18.477,26.757,13.967,9,35.74,12.668,53.418.663,16.134-10.956,22.287-30.167,19.742-46.668-.327-2.127-4.22-24.878-24.519-34.634-14.852-7.14-29.319-2.892-34.256-1.442C109.564,343.538,98.9,359.482,98.207,358.8Z" transform="translate(24.77 147.51)" fill="#1d0f16" stroke="#1d0f16" stroke-miterlimit="10" stroke-width="2"/>
    <path id="Path_18" data-name="Path 18" d="M156.112,376.785" transform="translate(134.619 232.151)" fill="#1d0f16" stroke="#1d0f16" stroke-miterlimit="10" stroke-width="2"/>
    <path id="Path_19" data-name="Path 19" d="M164.829,310.747" transform="translate(150.689 110.411)" fill="#1d0f16" stroke="#1d0f16" stroke-miterlimit="10" stroke-width="2"/>
    <path id="Path_20" data-name="Path 20" d="M170.987,330.816" transform="translate(162.041 147.408)" fill="#1d0f16" stroke="#1d0f16" stroke-miterlimit="10" stroke-width="2"/>
    <ellipse id="Ellipse_8" data-name="Ellipse 8" cx="14.63" cy="11.883" rx="14.63" ry="11.883" transform="translate(281.647 568.066) rotate(-63)" fill="#4f4c36" stroke="#1d0f16" stroke-miterlimit="10" stroke-width="9"/>
    <ellipse id="Ellipse_9" data-name="Ellipse 9" cx="11.883" cy="14.63" rx="11.883" ry="14.63" transform="translate(127.811 553.823) rotate(-47.244)" fill="#4f4c36" stroke="#1d0f16" stroke-miterlimit="10" stroke-width="9"/>
    <ellipse id="Ellipse_10" data-name="Ellipse 10" cx="12.043" cy="15.499" rx="12.043" ry="15.499" transform="translate(251.68 416.47) rotate(-25.944)" fill="#4f4c36" stroke="#1d0f16" stroke-miterlimit="10" stroke-width="9"/>
    <path id="Path_21" data-name="Path 21" d="M184.318,338.171" transform="translate(186.617 160.967)" fill="#1d0f16" stroke="#1d0f16" stroke-miterlimit="10" stroke-width="2"/>
    <path id="Path_22" data-name="Path 22" d="M167.413,309.037" transform="translate(155.453 107.258)" fill="#1d0f16" stroke="#1d0f16" stroke-miterlimit="10" stroke-width="2"/>
    <path id="Path_23" data-name="Path 23" d="M167.482,291.132" transform="translate(155.58 74.25)" fill="#1d0f16" stroke="#1d0f16" stroke-miterlimit="10" stroke-width="2"/>
    <path id="Path_24" data-name="Path 24" d="M174.336,314.968" transform="translate(168.215 118.192)" fill="#1d0f16" stroke="#1d0f16" stroke-miterlimit="10" stroke-width="2"/>
    <path id="Path_25" data-name="Path 25" d="M205.08,312.147c7.4,7.126,21.463,22.93,21.474,43.642,0,3.193.009,18.269-7.822,21.7-5.289,2.315-14.672,1.649-21.741,0-14.886-3.474-33.61,6.878-45.994,19.768-8.6,8.947-7.423,18.692-11.4,15.834s-.335-25.778-7.5-31.121a23.041,23.041,0,0,0-7.683-3.469,45.033,45.033,0,0,0,12.142,3.964c10.345,1.655,20.624-1.47,28.136-3.753.435-.134-4.445.219-3.782,0,6.546-2.164,30.272-9.981,39.98-29.567C208.885,333.024,206.295,317.666,205.08,312.147Z" transform="translate(76.193 112.991)" fill="#1d0f16" stroke="#1d0f16" stroke-linecap="round" stroke-linejoin="round" stroke-width="3"/>
    <path id="Path_26" data-name="Path 26" d="M171.164,334.813" transform="translate(162.368 154.776)" fill="#1d0f16" stroke="#1d0f16" stroke-linecap="round" stroke-linejoin="round" stroke-width="3"/>
    <path id="Path_27" data-name="Path 27" d="M174.121,333.236" transform="translate(167.819 151.869)" fill="#1d0f16" stroke="#1d0f16" stroke-miterlimit="10" stroke-width="2"/>
    <path id="Path_28" data-name="Path 28" d="M180.231,327.717" transform="translate(179.083 141.695)" fill="#1d0f16" stroke="#1d0f16" stroke-linecap="round" stroke-linejoin="round" stroke-width="3"/>
    <path id="Path_29" data-name="Path 29" d="M150.591,302.547" transform="translate(124.441 95.294)" fill="#1d0f16" stroke="#1d0f16" stroke-linecap="round" stroke-linejoin="round" stroke-width="3"/>
    <path id="Path_30" data-name="Path 30" d="M205.515,311.2" transform="translate(225.693 111.242)" fill="#1d0f16" stroke="#1d0f16" stroke-linecap="round" stroke-linejoin="round" stroke-width="3"/>
    <path id="Path_31" data-name="Path 31" d="M102.387,323.755" transform="translate(35.578 134.391)" fill="#1d0f16" stroke="#1d0f16" stroke-miterlimit="10" stroke-width="2"/>
    <path id="Path_32" data-name="Path 32" d="M152.682,288.967" transform="translate(128.296 70.259)" fill="#1d0f16" stroke="#1d0f16" stroke-linecap="round" stroke-linejoin="round" stroke-width="3"/>
    <path id="Path_33" data-name="Path 33" d="M119.37,316.125l0-.011c.052.006-3.107,11.923-1.4,20.951,1.763,9.318,8.659,15.264,14.122,19.976a61.042,61.042,0,0,0,28.118,13.4c17.645,3.358,31.487-2.755,32.67.4.641,1.715-2.906,4.973-6.471,6.767-10.618,5.351-24.253-.825-36.617-6.426-12.591-5.707-20.522-11.869-26.314-12.085a17.79,17.79,0,0,1-9.21-2.863,8.143,8.143,0,0,1-.965-.776c-3.533-3.262-2.2-9.628.431-22.037A87.084,87.084,0,0,1,119.37,316.125Z" transform="translate(49.762 120.305)" fill="#1d0f16" stroke="#1d0f16" stroke-linecap="round" stroke-linejoin="round" stroke-width="1"/>
    <path id="Path_34" data-name="Path 34" d="M105.431,318.465" transform="translate(41.189 124.639)" fill="#3c2935" stroke="#1d0f16" stroke-linecap="round" stroke-linejoin="round" stroke-width="1"/>
    <line id="Line_3" data-name="Line 3" x2="2.756" y2="0.698" transform="translate(275.033 397.842)" fill="none"/>
    <line id="Line_5" data-name="Line 5" x1="124.101" y2="159.748" transform="translate(271.765 250.854)" fill="none" stroke="#1d0f16" stroke-miterlimit="10" stroke-width="9"/>
    <path id="Path_35" data-name="Path 35" d="M212.01,319.984" transform="translate(237.667 127.439)" fill="none" stroke="#1d0f16" stroke-linecap="round" stroke-linejoin="round" stroke-width="2"/>
    <path id="Path_36" data-name="Path 36" d="M216.527,328.438" transform="translate(245.994 143.024)" fill="none" stroke="#1d0f16" stroke-linecap="round" stroke-linejoin="round" stroke-width="2"/>
    <path id="Path_37" data-name="Path 37" d="M176.687,354.558" transform="translate(172.549 191.176)" fill="none" stroke="#1d0f16" stroke-linecap="round" stroke-linejoin="round" stroke-width="2"/>
    <path id="Path_38" data-name="Path 38" d="M130.607,337.748" transform="translate(87.601 160.187)" fill="#1d0f16" stroke="#1d0f16" stroke-miterlimit="10" stroke-width="2"/>
    <path id="Path_39" data-name="Path 39" d="M124.506,332.431" transform="translate(76.354 150.385)" fill="#1d0f16" stroke="#1d0f16" stroke-miterlimit="10" stroke-width="2"/>
    <path id="Path_40" data-name="Path 40" d="M127.731,328.6" transform="translate(82.299 143.317)" fill="#1d0f16" stroke="#1d0f16" stroke-miterlimit="10" stroke-width="2"/>
  </g>
</svg>
