<svg xmlns="http://www.w3.org/2000/svg" width="252.742" height="307.928" viewBox="0 0 252.742 307.928">
  <g id="Group_25" data-name="Group 25" transform="translate(1.41 1.012)">
    <path id="Path_1" data-name="Path 1" d="M0,346.249c10.081-8.614,24.727-18.014,42.516-18.119,24.677-.143,34.389,17.728,51.993,12.511,16.29-4.826,26.012-26.7,28.735-43.708,3.074-19.206-7.239-23.044-4.325-46.088,3.3-26.129,15.55-40.019,9.814-45.812-3.766-3.8-11.828-.914-17.746,1.2-22.192,7.948-39.934,27.822-38.248,30.106,2.476,3.359,52.682-23.474,53.07-51.107.109-7.744-3.708-14.6-5.419-17.676-5.715-10.269-18.042-22.317-26.635-18.529-3.989,1.76-6.177,6.494-6.787,9.971-2.511,14.3,17.966,28.33,21.482,25.584,2.366-1.847-.6-13.145-6.994-20.154-14.157-15.521-41.514-7.1-43.6-6.423-11.89,3.84-21.077,11.377-20.429,13.124.573,1.541,8.514-2.21,22.015-1.544,10.542.52,14.86,3.262,16.565,4.485,5.239,3.756,9.2,10.129,7.89,11.924-1.816,2.487-11.352-7.073-26-6.111a36.328,36.328,0,0,0-18.938,7.2c-10.995,8.3-14.094,20.717-16.452,30.16-3.632,14.554-3.682,31.524.257,32.53,3.458.883,5.952-11.572,17.167-16.38,9.177-3.935,19.353-.672,19.414,1.166.053,1.618-7.731,1.486-17.879,7.531-5.667,3.376-12.806,7.629-14.9,15.2-1.317,4.758.438,9.833,3.949,19.983,2.669,7.713,4,11.569,6.93,14.253,5.58,5.12,15.042,7.036,21.117,2.883,1.1-.753,2.048-1.676,5.958-8.958,9.135-17.012,9.322-21.955,9.233-24.4-.1-2.831-.273-7.5-3.5-9.584-3-1.938-7.571-.959-10.025,1.625-3.832,4.036-2.175,11.651.122,15.979,3.116,5.875,6.843,5,9.951,10.285,4.311,7.327-1.079,14.34,2.077,17.043,5.323,4.555,25.557-5.564,34.351-22.652.917-1.781,10.374-20.614,4.111-30.836-1.039-1.7-3.621-4.966-2.823-8.754.462-2.194,2.127-4.89,4.128-5.26,5.318-.981,15.817,13.956,14.1,28.032-1.613,13.245-13.3,19.634-11.44,22.632,2.036,3.291,18.736-.156,27.973-12.2,10.571-13.785,8.342-34.9-.032-47.216-2.127-3.129-6.671-8.66-8.08-7.784-3.3,2.056,7.954,40.965,20.683,40.589,6.959-.206,13.967-12.14,14.446-22.346.812-17.324-17.286-27.653-20.49-29.38-10.542-5.683-14.49-1.605-22.163-6.3a38.448,38.448,0,0,1-4.317-3.436c-8.469-7.943-13.454-26.845-10.927-46.59,3.548-27.735,21.542-54.182,32.639-52.691,3.22.433,5.025,3.138,10.144,3.185,6.122.055,11.249-3.743,14.588-6.909-1.235-27.439,20.8-49.062,42.447-47.684,18.8,1.2,35.314,19.623,34.854,43.17-20.709-13.653-40.75-13.026-47.983-3.431-3.907,5.181-5.366,14.686-1.308,19.449,8.138,9.55,30.477-9.317,44.057.65,11.8,8.659,9.766,33.784,6.317,34.944-2.432.817-4.089-10.792-15.117-17.931-9.931-6.431-25.185-7.76-30.209-.7-1.8,2.529-2.929,7.037-1.253,10.594,4.173,8.849,21.146,2.138,39.241,13.787,4.938,3.179,6.3,5.373,6.926,6.569,5.525,10.615-1.361,31.264-12.564,33.41-11,2.106-24.04-14.022-21.2-22.772a9.4,9.4,0,0,1,8.178-6.222c10.337-.18,24.59,23.63,16.6,39.638-3.684,7.377-11.564,14.446-17.2,12.912-4.911-1.338-4.277-8.118-10.676-11.559-6.228-3.351-10.583,1.058-16.454-.436-14.76-3.758-23.028-40.725-13.584-48.2,3.2-2.533,8.791-1.956,11.81,1,8.965,8.786,1.118,44.272-15.648,47.8-11.461,2.414-26.425-10.6-27.119-23.384-.853-15.756,20.154-27.785,15.838-37.309-1.153-2.546-3.965-4.576-6.573-4.39-9.084.647-10.435,28.045-17.21,28.389-8.052.409-20.392-30.783-9.9-45.689.767-1.091,5.527-7.856,12-7.723,3.05.063,6.971,1.666,8.134,4.581,3.687,9.24-19.076,34.82-28.824,30.826-8.414-3.449-11.12-30.561,2.1-45.3,11.9-13.272,32.379-11.677,44.327-5.006,10.348,5.776,14.757,15.466,23.448,35.073a190.322,190.322,0,0,1,10.668,31.06" transform="translate(0 -40.743)" fill="none" stroke="#fff" stroke-linecap="round" stroke-miterlimit="10" stroke-width="2"/>
  </g>
</svg>
