<svg id="Layer_1" data-name="Layer 1" xmlns="http://www.w3.org/2000/svg" width="211.44" height="281.76" viewBox="0 0 211.44 281.76"><defs><style>.cls-1{fill:none;stroke:#000;stroke-linecap:round;stroke-miterlimit:10;stroke-width:2px;}</style></defs><path class="cls-1" d="M212.55,266c-8.28-7.08-20.31-14.8-34.93-14.89-20.27-.11-28.25,14.57-42.72,10.28-13.38-4-21.37-21.94-23.61-35.91-2.52-15.78,5.95-18.93,3.56-37.86-2.72-21.47-12.78-32.89-8.07-37.64,3.1-3.13,9.72-.75,14.59,1,18.23,6.53,32.8,22.85,31.42,24.73-2,2.76-43.28-19.28-43.6-42-.09-6.36,3-12,4.45-14.52,4.7-8.44,14.82-18.34,21.88-15.23,3.28,1.45,5.08,5.34,5.58,8.2,2.06,11.75-14.76,23.27-17.65,21-2-1.52.49-10.8,5.75-16.56,11.63-12.75,34.1-5.83,35.82-5.28,9.77,3.16,17.32,9.35,16.78,10.78-.47,1.27-7-1.81-18.08-1.26-8.67.42-12.21,2.68-13.61,3.68-4.31,3.09-7.56,8.32-6.49,9.8,1.5,2,9.33-5.81,21.37-5a29.79,29.79,0,0,1,15.56,5.91c9,6.82,11.58,17,13.52,24.78,3,12,3,25.9-.22,26.73-2.84.72-4.89-9.51-14.1-13.46-7.54-3.23-15.9-.55-15.95,1,0,1.33,6.35,1.22,14.69,6.19,4.66,2.77,10.52,6.26,12.24,12.48,1.09,3.91-.36,8.08-3.24,16.42-2.2,6.34-3.29,9.51-5.69,11.71-4.59,4.21-12.36,5.78-17.35,2.37-.91-.62-1.69-1.38-4.9-7.36-7.51-14-7.66-18-7.59-20,.09-2.33.23-6.17,2.88-7.88,2.46-1.59,6.22-.79,8.24,1.34,3.14,3.31,1.78,9.57-.1,13.12-2.57,4.83-5.63,4.12-8.18,8.45-3.54,6,.89,11.79-1.71,14-4.37,3.74-21-4.57-28.22-18.61-.75-1.47-8.52-16.94-3.38-25.34.86-1.39,3-4.08,2.32-7.19-.38-1.8-1.75-4-3.39-4.32-4.37-.81-13,11.46-11.59,23,1.33,10.88,10.93,16.13,9.4,18.59-1.67,2.71-15.39-.12-23-10-8.69-11.32-6.85-28.67,0-38.79,1.74-2.57,5.48-7.11,6.63-6.39,2.72,1.68-6.53,33.65-17,33.34-5.72-.17-11.47-10-11.87-18.36-.67-14.23,14.2-22.72,16.84-24.14,8.66-4.66,11.9-1.31,18.21-5.17a31.69,31.69,0,0,0,3.54-2.83c7-6.52,11.06-22.05,9-38.28C117.71,77.74,102.92,56,93.8,57.23c-2.64.36-4.12,2.58-8.33,2.62-5,0-9.24-3.08-12-5.68C74.5,31.63,56.39,13.86,38.61,15,23.16,16,9.6,31.12,10,50.46c17-11.21,33.48-10.7,39.43-2.82,3.21,4.26,4.41,12.07,1.07,16-6.68,7.85-25-7.65-36.2.54-9.69,7.11-8,27.76-5.19,28.71,2,.67,3.36-8.87,12.42-14.73,8.16-5.29,20.7-6.38,24.82-.58,1.48,2.08,2.41,5.78,1,8.71C43.93,93.54,30,88,15.11,97.59c-4,2.62-5.18,4.42-5.69,5.4-4.54,8.72,1.12,25.69,10.33,27.45,9,1.73,19.75-11.52,17.42-18.71a7.73,7.73,0,0,0-6.72-5.11C22,106.47,10.24,126,16.81,139.19c3,6.06,9.5,11.87,14.13,10.61,4-1.1,3.51-6.67,8.77-9.5s8.69.87,13.52-.36c12.12-3.09,18.92-33.46,11.16-39.6-2.63-2.08-7.22-1.6-9.71.83-7.36,7.22-.91,36.37,12.86,39.27,9.42,2,21.71-8.7,22.28-19.21.7-12.94-16.56-22.83-13-30.65,1-2.09,3.26-3.76,5.4-3.61,7.46.53,8.57,23,14.14,23.33,6.62.33,16.75-25.29,8.14-37.54-.63-.9-4.54-6.46-9.86-6.35-2.51,0-5.73,1.37-6.68,3.77-3,7.59,15.67,28.61,23.68,25.32,6.91-2.83,9.13-25.11-1.73-37.22-9.78-10.9-26.6-9.59-36.42-4.11C65,58.92,61.36,66.88,54.22,83a156.13,156.13,0,0,0-8.77,25.52"/></svg>