<svg id="Layer_1" data-name="Layer 1" xmlns="http://www.w3.org/2000/svg" width="307.94" height="389.31" viewBox="0 0 307.94 389.31"><defs><style>.cls-1{fill:none;stroke:#000;stroke-linecap:round;stroke-miterlimit:10;stroke-width:3px;}</style></defs><path class="cls-1" d="M307.5,348.46c-11.34-9.69-27.82-20.27-47.84-20.39-27.77-.16-38.7,19.95-58.51,14.08-18.33-5.43-29.27-30-32.33-49.18-3.46-21.62,8.14-25.93,4.86-51.87-3.71-29.4-17.49-45-11-51.55,4.24-4.28,13.31-1,20,1.36,25,8.94,44.94,31.3,43,33.88-2.78,3.78-59.28-26.42-59.72-57.52-.12-8.71,4.17-16.43,6.1-19.89,6.43-11.55,20.3-25.11,30-20.85,4.49,2,6.95,7.31,7.64,11.22,2.82,16.09-20.22,31.88-24.17,28.79-2.67-2.07.67-14.79,7.87-22.68,15.93-17.46,46.71-8,49.06-7.22,13.38,4.32,23.72,12.8,23,14.76-.64,1.74-9.58-2.48-24.77-1.73-11.87.58-16.72,3.67-18.64,5-5.9,4.23-10.36,11.4-8.88,13.42,2,2.8,12.77-8,29.26-6.87a40.86,40.86,0,0,1,21.31,8.1c12.37,9.33,15.86,23.31,18.51,33.94,4.09,16.37,4.15,35.47-.29,36.6-3.89,1-6.69-13-19.31-18.43-10.33-4.43-21.78-.76-21.85,1.31-.06,1.82,8.7,1.67,20.12,8.48,6.38,3.8,14.41,8.58,16.77,17.1,1.48,5.35-.49,11.07-4.45,22.49-3,8.68-4.5,13-7.79,16-6.28,5.76-16.93,7.91-23.76,3.24-1.24-.85-2.31-1.89-6.71-10.08-10.28-19.14-10.49-24.71-10.39-27.46.12-3.18.31-8.43,3.94-10.78,3.37-2.18,8.52-1.08,11.28,1.83,4.31,4.54,2.45,13.11-.14,18-3.51,6.61-7.7,5.63-11.2,11.57-4.85,8.25,1.22,16.14-2.33,19.18-6,5.13-28.76-6.26-38.66-25.49-1-2-11.67-23.2-4.62-34.7,1.17-1.91,4.07-5.59,3.17-9.85-.52-2.47-2.39-5.5-4.64-5.92-6-1.1-17.8,15.71-15.87,31.55,1.81,14.9,15,22.09,12.87,25.46-2.29,3.71-21.08-.17-31.48-13.72-11.89-15.51-9.38-39.27,0-53.13,2.39-3.52,7.51-9.75,9.09-8.76,3.72,2.31-8.95,46.1-23.27,45.67-7.83-.23-15.72-13.66-16.26-25.14-.91-19.5,19.45-31.12,23.06-33.06,11.86-6.4,16.3-1.81,24.94-7.1a43.91,43.91,0,0,0,4.85-3.86c9.54-8.94,15.14-30.21,12.3-52.43-4-31.21-24.24-61-36.73-59.3-3.62.49-5.65,3.54-11.41,3.59-6.89.06-12.66-4.21-16.42-7.78C118.42,27.53,93.62,3.19,69.27,4.75,48.11,6.09,29.53,26.83,30.05,53.33,53.35,38,75.9,38.67,84,49.46c4.4,5.84,6,16.53,1.47,21.89-9.15,10.75-34.29-10.48-49.57.73-13.28,9.75-11,38-7.11,39.32,2.74.92,4.6-12.14,17-20.17C57,84,74.18,82.5,79.83,90.44c2,2.85,3.3,7.92,1.41,11.92-4.69,10-23.79,2.41-44.15,15.52-5.56,3.57-7.1,6-7.8,7.39-6.22,11.94,1.53,35.18,14.14,37.6,12.37,2.36,27.05-15.78,23.86-25.63a10.57,10.57,0,0,0-9.2-7c-11.63-.2-27.67,26.59-18.68,44.6,4.14,8.3,13,16.26,19.35,14.53,5.52-1.5,4.81-9.13,12-13,7-3.77,11.91,1.19,18.52-.5,16.61-4.22,25.91-45.82,15.28-54.23-3.6-2.85-9.89-2.2-13.29,1.13-10.08,9.89-1.25,49.82,17.61,53.79,12.9,2.72,29.74-11.92,30.52-26.31,1-17.73-22.68-31.27-17.82-42,1.29-2.87,4.46-5.15,7.39-4.94,10.22.73,11.74,31.56,19.37,31.94,9.06.46,23-34.64,11.14-51.41-.86-1.23-6.22-8.84-13.5-8.69-3.43.07-7.84,1.88-9.15,5.16-4.15,10.39,21.47,39.18,32.44,34.68,9.46-3.88,12.51-34.39-2.37-51C153.52,49.1,130.48,50.9,117,58.4c-11.64,6.51-16.6,17.41-26.38,39.47a213.82,213.82,0,0,0-12,34.95"/></svg>