<svg id="Layer_1" data-name="Layer 1" xmlns="http://www.w3.org/2000/svg" width="299.97" height="380.44" viewBox="0 0 299.97 380.44"><path d="M66.28,73.42C40.52,130.13,49.53,195.9,88.93,240.05c28.56,32,70.06,49.25,113,49.25a162.09,162.09,0,0,0,80-21.2c-36.24,50.62-91.33,74.58-141.78,74.58-30.67,0-59.63-8.85-81.6-25.95-62.95-49-73.1-169.17,7.78-243.31M281.88,268.1h0M75.1,61.27,64.26,71.21A178.5,178.5,0,0,0,5.59,210.44,163.24,163.24,0,0,0,20.18,272.2c8.82,19,21.43,35.2,36.47,46.9,22,17.14,51.67,26.58,83.45,26.58,56.31,0,110.23-28.34,144.22-75.83l7.93-11.07-11.85,6.71a159.57,159.57,0,0,1-78.51,20.81c-43,0-83.37-17.58-110.73-48.24a144.27,144.27,0,0,1-35-77A157.34,157.34,0,0,1,69,74.66L75.1,61.27ZM66.28,76.42h0ZM281.89,265.1Z"/><path d="M188.09,143.87a49.25,49.25,0,0,0,26.07,27,47.87,47.87,0,0,0-27,26.07,55.52,55.52,0,0,0-26.07-27,57.9,57.9,0,0,0,27-26.07m.35-7.25-3,5.89a55,55,0,0,1-25.59,24.71l-5.64,2.65,5.58,2.76a52.57,52.57,0,0,1,24.66,25.53l2.83,6.25,2.67-6.31a45.2,45.2,0,0,1,10.29-14.93,44.43,44.43,0,0,1,15-9.5l6.83-2.62-6.7-2.93a46.75,46.75,0,0,1-15.43-11,46.06,46.06,0,0,1-9.05-14.37l-2.44-6.15Z"/><path d="M223.2,224.12a24.84,24.84,0,0,0,13.18,13.64,24.24,24.24,0,0,0-13.64,13.18,28.11,28.11,0,0,0-5.69-8.26,27.82,27.82,0,0,0-7.49-5.38,29.25,29.25,0,0,0,13.64-13.18m.35-7.25-3,5.89a26.57,26.57,0,0,1-4.77,6.56,26.29,26.29,0,0,1-7.48,5.26l-5.64,2.65,5.59,2.76A25,25,0,0,1,220,252.17l2.83,6.25,2.67-6.31a21.54,21.54,0,0,1,4.86-7.06,21.08,21.08,0,0,1,7.09-4.48l6.83-2.62-6.7-2.93A22,22,0,0,1,226,223l-2.44-6.15Z"/><path d="M253.14,170.4a35,35,0,0,0,18.49,19.15,34,34,0,0,0-19.15,18.5,39.53,39.53,0,0,0-8-11.6A39.11,39.11,0,0,0,234,188.9a41.15,41.15,0,0,0,19.16-18.5m.35-7.25-3,5.88a38.21,38.21,0,0,1-17.76,17.15l-5.63,2.65,5.58,2.76a36.53,36.53,0,0,1,17.09,17.7l2.82,6.25,2.67-6.32a31.12,31.12,0,0,1,7.11-10.3,30.68,30.68,0,0,1,10.36-6.56l6.83-2.62-6.7-2.93a32.34,32.34,0,0,1-10.66-7.58,31.83,31.83,0,0,1-6.25-9.94l-2.44-6.14Z"/></svg>