<svg xmlns="http://www.w3.org/2000/svg" width="131" height="72.5" viewBox="0 0 131 72.5">
  <g id="Group_55" data-name="Group 55" transform="translate(-150.5 -49.5)">
    <g id="Group_54" data-name="Group 54" transform="translate(-202 -73)">
      <path id="Path_290" data-name="Path 290" d="M395.5,183h53" fill="none" stroke="#fff" stroke-miterlimit="10" stroke-width="3"/>
      <path id="Path_291" data-name="Path 291" d="M394.293,183" fill="none" stroke="#fff" stroke-miterlimit="10" stroke-width="3"/>
      <path id="Path_292" data-name="Path 292" d="M457,168H354V124H457Z" fill="none" stroke="#fff" stroke-miterlimit="10" stroke-width="3"/>
      <path id="Path_293" data-name="Path 293" d="M466.862,134.13l.3,17.434,15.007.294" fill="none" stroke="#fff" stroke-miterlimit="10" stroke-width="3"/>
      <circle id="Ellipse_9505" data-name="Ellipse 9505" cx="10" cy="10" r="10" transform="translate(375.5 173.5)" fill="none" stroke="#fff" stroke-miterlimit="10" stroke-width="3"/>
      <circle id="Ellipse_9506" data-name="Ellipse 9506" cx="10" cy="10" r="10" transform="translate(448.5 172.5)" fill="none" stroke="#fff" stroke-miterlimit="10" stroke-width="3"/>
      <path id="Path_294" data-name="Path 294" d="M469,183h13" fill="none" stroke="#fff" stroke-miterlimit="10" stroke-width="3"/>
      <path id="Path_295" data-name="Path 295" d="M376,183H364.5c0-.166,0-.333,0-.5V168" fill="none" stroke="#fff" stroke-miterlimit="10" stroke-width="3"/>
      <path id="Path_296" data-name="Path 296" d="M482,184V152.693a19.905,19.905,0,0,0-1.649-7.963c-4.317-9.913-16.482-11.568-17.723-11.73a23.807,23.807,0,0,0-5.628-.062" fill="none" stroke="#fff" stroke-miterlimit="10" stroke-width="3"/>
    </g>
  </g>
</svg>
