<svg id="Layer_1" data-name="Layer 1" xmlns="http://www.w3.org/2000/svg" width="89.25" height="128.5" viewBox="0 0 89.25 128.5"><defs><style>.cls-1,.cls-2{fill:none;stroke:#000;stroke-miterlimit:10;}.cls-1{stroke-linecap:round;}</style></defs><path class="cls-1" d="M71.47,56.6a7.61,7.61,0,0,0,4.14-.28c.68-.25,3.77-1.38,4.08-4,.25-2.16-1.54-4-3-4.83a6.69,6.69,0,0,0-6.6.47c-4.34,2.77-6.27,11.06-4,16.84,1,2.44,2.81,4.54,1.94,6.35a2.52,2.52,0,0,1-2.49,1.52c-.93-.2-1.77-1.24-1.56-1.86a1,1,0,0,1,1-.55,1,1,0,0,1,1,.85c0,.22-.15.53-1,1-1.63.84-4.68,1.61-6.44,0-.22-.19-.69-.61-.6-1a1,1,0,0,1,1.28-.56,1.35,1.35,0,0,1,.4,1.64,2.3,2.3,0,0,1-3.47.13,2.33,2.33,0,0,1,.25-2.49c.94-1.22,3-1.07,4.33-.26s1.81,2.53,2.1,3.67c.88,3.47-.56,5.09.5,6.28,1.33,1.51,4.41-.17,5.33,1.36a2.63,2.63,0,0,1,0,2c-.73,2.27-3.35,1.93-5.39,4.48-.36.45-1.94,2.44-1.34,4,.72,1.92,4,1.51,4.3,2.92s-2.16,3.7-5,4.48c-4.92,1.35-9.78-2.32-12.33-4.24a29.31,29.31,0,0,1-7.16-8.08,33.61,33.61,0,0,1-5.27-12.55c-1.37-7.62.84-12.59-1.28-13.71-1.39-.74-3.4.78-4.87,1.9-5.53,4.18-8.75,11.32-8.08,11.81,1,.72,12.71-11.22,10.39-19a10.76,10.76,0,0,0-3.08-4.48c-2.51-2.38-7-4.67-9.1-2.85a4,4,0,0,0-1,3.39c.56,4.24,7.54,6.37,8.28,5.29.5-.73-1.33-3.64-3.74-5-5.33-3.1-12.27,1.67-12.79,2-3,2.12-4.91,5-4.58,5.48s2.2-1.37,6-2.37c3-.78,4.46-.4,5-.2,1.8.59,3.48,2,3.27,2.65-.29.85-3.81-1-7.84.57A10.8,10.8,0,0,0,8.39,63.1C6,66.4,6.26,70.15,6.43,73c.26,4.4,1.74,9.16,2.94,9.1,1-.06.65-3.77,3.37-6.11,2.23-1.91,5.37-1.89,5.55-1.38s-2,1.1-4.36,3.69c-1.29,1.44-2.92,3.27-2.84,5.57.05,1.45,1,2.72,2.87,5.26,1.43,1.93,2.14,2.89,3.2,3.39,2,.94,4.84.65,6.18-1,.24-.31.42-.65.88-3,1.06-5.58.68-7,.44-7.66s-.74-2.08-1.83-2.38a2.46,2.46,0,0,0-2.66,1.34c-.72,1.47.41,3.46,1.44,4.47,1.39,1.38,2.36.8,3.69,2,1.86,1.68,1,4.12,2.09,4.6,1.89.81,6.68-3.81,7.64-9.38.1-.58,1.09-6.7-1.57-9a3.59,3.59,0,0,1-1.56-2.21,2,2,0,0,1,.7-1.84C34,67.64,38.26,70.9,39,75c.71,3.86-2,6.68-1.21,7.36s5.24-1.69,6.77-5.89c1.75-4.79-.74-10.52-4.17-13.24-.87-.69-2.63-1.84-2.95-1.47-.75.87,5.84,10.79,9.37,9.57,1.94-.68,2.85-4.64,2.09-7.54-1.3-4.94-7.29-6.24-8.34-6.44-3.45-.67-4.2.83-6.77.18A10.57,10.57,0,0,1,32.3,57c-3.08-1.48-6.14-6.34-7.17-12.1-1.45-8.1,1.27-17.1,4.51-17.66.95-.16,1.69.44,3.13,0A6.4,6.4,0,0,0,36.25,24C33.49,16.38,37.77,8.38,44,6.86c5.38-1.32,11.63,2.39,13.58,9-7-2-12.58-.07-13.76,3.26-.64,1.8-.22,4.59,1.34,5.57,3.13,2,7.73-5.3,12.42-3.7,4.07,1.39,5.71,8.62,4.85,9.25-.61.44-2.1-2.67-5.82-3.7-3.36-.93-7.75,0-8.54,2.46a3.32,3.32,0,0,0,.58,3.08c2,2.12,6.12-1.26,12.22.42a5.19,5.19,0,0,1,2.53,1.23c2.48,2.49,2.37,8.89-.59,10.48s-8-1.82-8-4.52a2.76,2.76,0,0,1,1.75-2.47c2.88-1,9,4.46,8.14,9.66-.38,2.39-2,5.07-3.68,5.13-1.5.06-1.92-1.9-4-2.3S54.14,51,52.36,51.08c-4.47.24-10-9.4-8-12.32a2.79,2.79,0,0,1,3.4-.76c3.29,1.67,4.21,12.32-.18,14.78-3,1.69-8.35-.64-9.67-4.17C36.24,44.27,41.07,39,39,36.75a2.16,2.16,0,0,0-2.23-.65c-2.49,1-.46,8.79-2.33,9.48-2.22.82-8.43-6.84-6.8-11.94.12-.38.86-2.69,2.69-3.23A2.7,2.7,0,0,1,33,31c1.85,2.27-2.28,11.45-5.37,11.19-2.66-.23-5.81-7.59-3.4-12.89,2.17-4.77,8.05-6.13,12-5.31,3.41.71,5.5,3,9.67,7.77a56.43,56.43,0,0,1,5.73,7.77"/><path class="cls-2" d="M54,82.44A7.73,7.73,0,0,1,55.72,79c.59-.66,1.78-2,3.33-1.94,1.09,0,1.26.48,2.46.9,1.36.47,2.08-.76,3.53-.83,2.45-.13,5.59,3.1,5.2,5.82-.26,1.79-2,2.82-3.25,3.58-4.79,2.87-9.84.68-10.55.36-1.33-.61-3.26-1.49-3.27-2.69,0-1.78,4.25-3.65,8-3.67s7,1.81,6.88,2.26c-.06.26-1.25-.12-3.48.35-1.57.33-1.86.71-3,.71a7.94,7.94,0,0,1-2.87-.78A12.75,12.75,0,0,0,54,82.44Z"/><path d="M71.13,56.42c0,.14-.07.35-.14.6-.19.67-.44,1-.37,1.09s.86-.88,1.25-.71.17,1.2.4,1.24.27-.23.35-.37c.27-.46.19-.81.32-.84.28-.06.75,1.19,1,1.14s-.07-1.27.17-1.35.86,1.31,1.16,1.22,0-1.51.32-1.59.77,1.08,1,1-.1-1.43.13-1.49.72,1.12.92,1.06-.21-1.64,0-1.73.9,1.27,1.07,1.2-.36-1.44-.13-1.54.74.81.92.72-.27-1.11-.06-1.21.73.62.89.52-.29-1-.11-1.07.6.43.73.35-.41-.78-.7-1.86C80,52,80.08,51.43,80,51.41s-.2,1.43-1,2.65a5.68,5.68,0,0,1-3,2A9.18,9.18,0,0,1,71.13,56.42Z"/><path d="M28.9,101.52V102a2,2,0,0,0-1,.48,1.83,1.83,0,0,0-.46,1,14.3,14.3,0,0,0-.11,2v5.42a16.86,16.86,0,0,1-.19,2.63,6,6,0,0,1-.73,2.14,4.09,4.09,0,0,1-1.74,1.53,7.23,7.23,0,0,1-3.09.56,11.31,11.31,0,0,1-2.18-.23,5.28,5.28,0,0,1-2.05-.85,3.83,3.83,0,0,1-1.17-1.37,5.82,5.82,0,0,1-.54-1.89,20,20,0,0,1-.13-2.45v-7.06a4.56,4.56,0,0,0-.12-1.23.77.77,0,0,0-.45-.54,3.29,3.29,0,0,0-1-.17v-.45c.43,0,1,0,1.72,0l2.24,0,2.24,0c.72,0,1.32,0,1.78,0V102a4.26,4.26,0,0,0-1.16.17.86.86,0,0,0-.53.54,4.11,4.11,0,0,0-.13,1.23v9.17a6.89,6.89,0,0,0,.31,2.33,2.21,2.21,0,0,0,.95,1.2,3.09,3.09,0,0,0,1.55.36,3.51,3.51,0,0,0,2.36-.73,4,4,0,0,0,1.21-2,11.52,11.52,0,0,0,.36-3v-5.22a16.57,16.57,0,0,0-.12-2.3,1.7,1.7,0,0,0-.6-1.16,3.26,3.26,0,0,0-1.55-.5v-.45c.3,0,.69,0,1.17,0l1.35,0,1,0C28.39,101.56,28.67,101.54,28.9,101.52Z"/><path d="M51.83,101.52V102a2,2,0,0,0-1,.48,1.71,1.71,0,0,0-.46,1,12.66,12.66,0,0,0-.12,2v12a5.54,5.54,0,0,0-.73,0,8.39,8.39,0,0,0-.84,0l-10-10.88V113a16.57,16.57,0,0,0,.12,2.3,1.72,1.72,0,0,0,.61,1.15A3.59,3.59,0,0,0,41,117v.45c-.3,0-.69,0-1.17,0l-1.35,0-1,0a6.47,6.47,0,0,0-.85,0V117a2.06,2.06,0,0,0,1-.48,1.83,1.83,0,0,0,.45-1.05,12.77,12.77,0,0,0,.11-2v-9.58a4.65,4.65,0,0,0-.11-1.23.81.81,0,0,0-.46-.54,3.33,3.33,0,0,0-1-.17v-.45c.22,0,.51,0,.85,0l1,0,1.1,0,1,0,9.2,9.72v-5.31a16.27,16.27,0,0,0-.13-2.3,1.73,1.73,0,0,0-.59-1.16,3.34,3.34,0,0,0-1.55-.5v-.45c.29,0,.68,0,1.16,0l1.35,0,1,0Z"/><path d="M68.49,101.21a6.64,6.64,0,0,1,2.59.43,7.62,7.62,0,0,1,1.77,1,.73.73,0,0,0,.45.2c.28,0,.47-.45.56-1.35h.52c0,.6,0,1.33-.07,2.2s0,2,0,3.43h-.52a11.12,11.12,0,0,0-.55-2.71,3.91,3.91,0,0,0-2.62-2.35,4.38,4.38,0,0,0-1.21-.18,3.23,3.23,0,0,0-2.16.71,5,5,0,0,0-1.36,1.84,9.7,9.7,0,0,0-.72,2.47,16.76,16.76,0,0,0-.21,2.6,13.22,13.22,0,0,0,1,5.91,3,3,0,0,0,2.63,1.87,2.38,2.38,0,0,0,.63-.07,1.42,1.42,0,0,0,.47-.2,1.13,1.13,0,0,0,.36-.45,1.9,1.9,0,0,0,.11-.68v-2.24A6,6,0,0,0,70,112a1.11,1.11,0,0,0-.66-.74,4.26,4.26,0,0,0-1.44-.22v-.45l1.26,0,1.55,0,1.48,0c.72,0,1.39,0,2,0l1.48,0v.45a.88.88,0,0,0-.75.36,4,4,0,0,0-.18,1.57v4.45h-.45a3.07,3.07,0,0,0-.17-.83c-.11-.3-.28-.45-.52-.45a2.1,2.1,0,0,0-.51.09,6.6,6.6,0,0,0-1,.43,16.4,16.4,0,0,1-1.86.75,6,6,0,0,1-1.94.33q-4.23,0-6.34-2.15a8.17,8.17,0,0,1-2.11-6,8.55,8.55,0,0,1,1.11-4.41A7.72,7.72,0,0,1,64,102.27,9.36,9.36,0,0,1,68.49,101.21Z"/></svg>