<svg id="Layer_1" data-name="Layer 1" xmlns="http://www.w3.org/2000/svg" width="103.46" height="143.82" viewBox="0 0 103.46 143.82"><defs><style>.cls-1,.cls-2{fill:none;stroke:#000;stroke-miterlimit:10;}.cls-1{stroke-linecap:round;}</style></defs><path class="cls-1" d="M86.46,64.35A9.45,9.45,0,0,0,91.61,64c.84-.31,4.68-1.71,5.06-5,.31-2.67-1.9-5-3.71-6a8.31,8.31,0,0,0-8.2.58C79.38,57,77,67.34,79.78,74.51c1.18,3,3.49,5.63,2.41,7.89a3.14,3.14,0,0,1-3.1,1.88C77.94,84,76.9,82.73,77.15,82a1.23,1.23,0,0,1,1.24-.69,1.28,1.28,0,0,1,1.19,1.06c0,.28-.18.65-1.24,1.2-2,1-5.8,2-8,.06-.27-.24-.85-.76-.74-1.26a1.22,1.22,0,0,1,1.58-.69,1.64,1.64,0,0,1,.5,2c-.59,1.21-3.36,1.57-4.3.17a2.88,2.88,0,0,1,.31-3.09c1.16-1.52,3.77-1.34,5.37-.33s2.25,3.14,2.61,4.55c1.1,4.31-.7,6.32.62,7.81,1.65,1.87,5.47-.22,6.62,1.69a3.24,3.24,0,0,1,0,2.52c-.91,2.82-4.16,2.4-6.69,5.57-.45.56-2.41,3-1.67,5,.89,2.39,4.92,1.88,5.34,3.63s-2.69,4.59-6.19,5.56c-6.11,1.69-12.15-2.88-15.31-5.26a36.39,36.39,0,0,1-8.89-10A41.61,41.61,0,0,1,43,85.88c-1.71-9.46,1-15.64-1.59-17-1.73-.92-4.22,1-6.05,2.35-6.86,5.2-10.86,14.06-10,14.67,1.23.9,15.78-13.93,12.89-23.6a13.07,13.07,0,0,0-3.82-5.56c-3.11-2.95-8.72-5.8-11.29-3.54a5,5,0,0,0-1.28,4.21c.69,5.26,9.36,7.9,10.28,6.56.62-.9-1.65-4.51-4.64-6.25-6.63-3.86-15.23,2.07-15.88,2.53C7.84,62.87,5.46,66.5,5.88,67s2.72-1.7,7.49-2.94c3.73-1,5.54-.49,6.26-.25,2.24.74,4.31,2.52,4.05,3.29-.36,1.06-4.72-1.22-9.72.71a13.36,13.36,0,0,0-5.81,4.58c-2.92,4.09-2.64,8.76-2.43,12.3C6.05,90.19,7.89,96.1,9.37,96c1.3-.07.81-4.68,4.19-7.58,2.76-2.37,6.66-2.35,6.88-1.72S17.91,88.09,15,91.3c-1.6,1.8-3.62,4.06-3.53,6.92.06,1.8,1.23,3.38,3.56,6.53,1.78,2.39,2.66,3.59,4,4.2,2.51,1.18,6,.81,7.67-1.3.3-.38.53-.81,1.1-3.77,1.32-6.92.84-8.66.55-9.51s-.92-2.58-2.27-3a3.05,3.05,0,0,0-3.31,1.66c-.9,1.83.51,4.3,1.79,5.55,1.72,1.71,2.93,1,4.58,2.5,2.31,2.08,1.2,5.11,2.59,5.7,2.35,1,8.29-4.73,9.49-11.64.12-.72,1.35-8.31-1.94-11.19-.55-.47-1.81-1.33-1.94-2.74A2.47,2.47,0,0,1,38.21,79c1.74-.92,7,3.13,8,8.22.89,4.79-2.48,8.29-1.51,9.13s6.51-2.1,8.41-7.3c2.18-6-.91-13.07-5.17-16.44-1.08-.86-3.27-2.29-3.67-1.83-.92,1.08,7.25,13.4,11.64,11.87,2.4-.83,3.54-5.75,2.59-9.36-1.61-6.12-9-7.74-10.35-8-4.29-.82-5.22,1-8.4.23a14.16,14.16,0,0,1-1.88-.72c-3.82-1.84-7.62-7.88-8.9-15-1.8-10,1.58-21.22,5.6-21.92,1.17-.2,2.1.55,3.88,0a8,8,0,0,0,4.33-4C39.32,14.42,44.63,4.48,52.31,2.6,59,1,66.76,5.57,69.17,13.82c-8.7-2.49-15.61-.08-17.08,4.05-.8,2.23-.27,5.7,1.67,6.92,3.88,2.43,9.59-6.58,15.41-4.59,5.06,1.72,7.09,10.69,6,11.47-.76.55-2.6-3.31-7.22-4.59-4.17-1.15-9.62.05-10.6,3.06A4.13,4.13,0,0,0,58.09,34c2.42,2.62,7.6-1.57,15.17.51A6.33,6.33,0,0,1,76.39,36c3.09,3.09,3,11-.72,13s-9.9-2.25-9.87-5.61A3.44,3.44,0,0,1,68,40.34c3.58-1.19,11.14,5.54,10.11,12-.48,3-2.45,6.29-4.58,6.38-1.85.07-2.37-2.36-5-2.86S65,57.37,62.75,57.5c-5.55.3-12.47-11.67-10-15.3A3.48,3.48,0,0,1,57,41.26c4.08,2.08,5.23,15.29-.22,18.35-3.73,2.1-10.36-.8-12-5.17-2-5.4,4-11.88,1.43-14.73a2.68,2.68,0,0,0-2.77-.81c-3.09,1.22-.56,10.91-2.88,11.77-2.76,1-10.47-8.49-8.45-14.83.15-.46,1.07-3.33,3.34-4a3.34,3.34,0,0,1,3.33.71c2.29,2.81-2.84,14.21-6.67,13.89-3.3-.29-7.21-9.43-4.22-16,2.69-5.92,10-7.6,14.89-6.59,4.23.88,6.83,3.77,12,9.65a69.37,69.37,0,0,1,7.11,9.65"/><path class="cls-2" d="M64.72,96.43a9.63,9.63,0,0,1,2.19-4.26c.74-.81,2.22-2.45,4.13-2.4,1.36,0,1.58.59,3.06,1.11,1.7.59,2.58-.94,4.38-1,3-.16,7,3.85,6.46,7.22-.32,2.23-2.45,3.51-4,4.46-5.94,3.56-12.21.83-13.09.44-1.66-.76-4.05-1.85-4.06-3.34,0-2.22,5.27-4.54,10-4.56s8.64,2.25,8.53,2.81c-.07.33-1.54-.15-4.31.44-2,.41-2.32.87-3.73.87a9.85,9.85,0,0,1-3.56-1A15.85,15.85,0,0,0,64.72,96.43Z"/><path d="M86,64.13a6.93,6.93,0,0,1-.17.74c-.24.84-.55,1.28-.45,1.36s1.07-1.09,1.54-.88.21,1.49.5,1.54.34-.29.44-.47c.32-.57.23-1,.39-1,.35-.08.93,1.47,1.19,1.4s-.09-1.57.2-1.67,1.07,1.63,1.45,1.51,0-1.86.39-2,1,1.34,1.24,1.25-.12-1.78.16-1.86.89,1.4,1.14,1.32-.26-2,0-2.14,1.12,1.57,1.33,1.49-.44-1.8-.16-1.92.92,1,1.14.9-.33-1.38-.07-1.51.9.77,1.1.65-.36-1.19-.13-1.33.75.54.9.44-.51-1-.86-2.32c-.28-1-.2-1.7-.35-1.72s-.25,1.77-1.26,3.29a7,7,0,0,1-3.67,2.47A11.36,11.36,0,0,1,86,64.13Z"/><path d="M33.62,120.12v.56a2.43,2.43,0,0,0-1.27.59,2.28,2.28,0,0,0-.58,1.3,17.1,17.1,0,0,0-.14,2.47v6.72A21.15,21.15,0,0,1,31.4,135a7.22,7.22,0,0,1-.91,2.65,5,5,0,0,1-2.16,1.9,9,9,0,0,1-3.84.7,14.59,14.59,0,0,1-2.71-.28,6.69,6.69,0,0,1-2.54-1.06,4.85,4.85,0,0,1-1.45-1.71,7.29,7.29,0,0,1-.67-2.34,25,25,0,0,1-.17-3v-8.77a5.71,5.71,0,0,0-.14-1.52,1,1,0,0,0-.55-.67,3.8,3.8,0,0,0-1.29-.21v-.56l2.14.06c.88,0,1.81,0,2.77,0s1.9,0,2.8,0l2.2-.06v.56a4.89,4.89,0,0,0-1.44.21,1.06,1.06,0,0,0-.65.67,5.1,5.1,0,0,0-.17,1.52v11.39a8.55,8.55,0,0,0,.39,2.89,2.69,2.69,0,0,0,1.17,1.49,3.83,3.83,0,0,0,1.93.45,4.34,4.34,0,0,0,2.93-.91,4.93,4.93,0,0,0,1.51-2.54,14.75,14.75,0,0,0,.44-3.78v-6.48a20.54,20.54,0,0,0-.15-2.86,2.09,2.09,0,0,0-.74-1.43,4,4,0,0,0-1.93-.62v-.56l1.45.06,1.68,0c.43,0,.85,0,1.27,0Z"/><path d="M62.08,120.12v.56a2.43,2.43,0,0,0-1.26.59,2.28,2.28,0,0,0-.58,1.3A17.1,17.1,0,0,0,60.1,125v14.85a6.37,6.37,0,0,0-.9-.06,9.79,9.79,0,0,0-1.05.06L45.79,126.38v8a20.61,20.61,0,0,0,.15,2.87,2,2,0,0,0,.75,1.42,4.47,4.47,0,0,0,1.91.63v.56c-.37,0-.85-.06-1.45-.07l-1.67,0-1.26,0a9.35,9.35,0,0,0-1.06.07v-.56a2.68,2.68,0,0,0,1.29-.6,2.31,2.31,0,0,0,.55-1.3,16,16,0,0,0,.14-2.46V123.08a5.71,5.71,0,0,0-.14-1.52,1,1,0,0,0-.57-.67,3.82,3.82,0,0,0-1.27-.21v-.56l1.06.06,1.26,0c.46,0,.92,0,1.37,0l1.2-.06,11.41,12.06v-6.59a20.54,20.54,0,0,0-.15-2.86,2.13,2.13,0,0,0-.74-1.43,4,4,0,0,0-1.93-.62v-.56l1.45.06,1.68,0c.43,0,.85,0,1.27,0Z"/><path d="M82.77,119.73a8.41,8.41,0,0,1,3.21.53,9.8,9.8,0,0,1,2.2,1.29.91.91,0,0,0,.56.25c.35,0,.59-.56.7-1.68h.64c0,.75-.07,1.66-.08,2.73s0,2.48,0,4.25h-.64a13.74,13.74,0,0,0-.69-3.36,4.69,4.69,0,0,0-1.88-2.3,4.92,4.92,0,0,0-1.37-.62,5.41,5.41,0,0,0-1.51-.22,4,4,0,0,0-2.68.88,6.1,6.1,0,0,0-1.68,2.29,12.31,12.31,0,0,0-.9,3.07,21.16,21.16,0,0,0-.26,3.22q0,5,1.23,7.34a3.65,3.65,0,0,0,3.26,2.32,3,3,0,0,0,.78-.09,1.75,1.75,0,0,0,.59-.25,1.37,1.37,0,0,0,.45-.56,2.21,2.21,0,0,0,.14-.83V135.2a7.31,7.31,0,0,0-.21-2,1.39,1.39,0,0,0-.83-.92A5.2,5.2,0,0,0,82,132v-.56l1.56,0,1.93,0h1.84l2.47,0,1.83-.06V132a1.08,1.08,0,0,0-.93.45,5,5,0,0,0-.22,2v5.53h-.56a3.88,3.88,0,0,0-.22-1c-.13-.37-.35-.56-.64-.56a2.39,2.39,0,0,0-.63.12,8.16,8.16,0,0,0-1.27.53,19.71,19.71,0,0,1-2.3.93,7.64,7.64,0,0,1-2.42.41q-5.25,0-7.87-2.67a10.15,10.15,0,0,1-2.62-7.44,10.59,10.59,0,0,1,1.38-5.47,9.66,9.66,0,0,1,3.82-3.65A11.67,11.67,0,0,1,82.77,119.73Z"/></svg>