<svg id="Layer_1" data-name="Layer 1" xmlns="http://www.w3.org/2000/svg" width="171.07" height="121.13" viewBox="0 0 171.07 121.13"><defs><style>.cls-1,.cls-2{fill:none;stroke:#000;stroke-miterlimit:10;}.cls-1{stroke-linecap:round;}</style></defs><path class="cls-1" d="M86.46,64.35A9.45,9.45,0,0,0,91.61,64c.84-.31,4.68-1.71,5.06-5,.31-2.67-1.9-5-3.71-6a8.31,8.31,0,0,0-8.2.58C79.38,57,77,67.34,79.78,74.51c1.18,3,3.49,5.63,2.41,7.89a3.14,3.14,0,0,1-3.1,1.88C77.94,84,76.9,82.73,77.15,82a1.23,1.23,0,0,1,1.24-.69,1.28,1.28,0,0,1,1.19,1.06c0,.28-.18.65-1.24,1.2-2,1-5.8,2-8,.06-.27-.24-.85-.76-.74-1.26a1.22,1.22,0,0,1,1.58-.69,1.64,1.64,0,0,1,.5,2c-.59,1.21-3.36,1.57-4.3.17a2.88,2.88,0,0,1,.31-3.09c1.16-1.52,3.77-1.34,5.37-.33s2.25,3.14,2.61,4.55c1.1,4.31-.7,6.32.62,7.81,1.65,1.87,5.47-.22,6.62,1.69a3.24,3.24,0,0,1,0,2.52c-.91,2.82-4.16,2.4-6.69,5.57-.45.56-2.41,3-1.67,5,.89,2.39,4.92,1.88,5.34,3.63s-2.69,4.59-6.19,5.56c-6.11,1.69-12.15-2.88-15.31-5.26a36.39,36.39,0,0,1-8.89-10A41.61,41.61,0,0,1,43,85.88c-1.71-9.46,1-15.64-1.59-17-1.73-.92-4.22,1-6.05,2.35-6.86,5.2-10.86,14.06-10,14.67,1.23.9,15.78-13.93,12.89-23.6a13.07,13.07,0,0,0-3.82-5.56c-3.11-2.95-8.72-5.8-11.29-3.54a5,5,0,0,0-1.28,4.21c.69,5.26,9.36,7.9,10.28,6.56.62-.9-1.65-4.51-4.64-6.25-6.63-3.86-15.23,2.07-15.88,2.53C7.84,62.87,5.46,66.5,5.88,67s2.72-1.7,7.49-2.94c3.73-1,5.54-.49,6.26-.25,2.24.74,4.31,2.52,4.05,3.29-.36,1.06-4.72-1.22-9.72.71a13.36,13.36,0,0,0-5.81,4.58c-2.92,4.09-2.64,8.76-2.43,12.3C6.05,90.19,7.89,96.1,9.37,96c1.3-.07.81-4.68,4.19-7.58,2.76-2.37,6.66-2.35,6.88-1.72S17.91,88.09,15,91.3c-1.6,1.8-3.62,4.06-3.53,6.92.06,1.8,1.23,3.38,3.56,6.53,1.78,2.39,2.66,3.59,4,4.2,2.51,1.18,6,.81,7.67-1.3.3-.38.53-.81,1.1-3.77,1.32-6.92.84-8.66.55-9.51s-.92-2.58-2.27-3a3.05,3.05,0,0,0-3.31,1.66c-.9,1.83.51,4.3,1.79,5.55,1.72,1.71,2.93,1,4.58,2.5,2.31,2.08,1.2,5.11,2.59,5.7,2.35,1,8.29-4.73,9.49-11.64.12-.72,1.35-8.31-1.94-11.19-.55-.47-1.81-1.33-1.94-2.74A2.47,2.47,0,0,1,38.21,79c1.74-.92,7,3.13,8,8.22.89,4.79-2.48,8.29-1.51,9.13s6.51-2.1,8.41-7.3c2.18-6-.91-13.07-5.17-16.44-1.08-.86-3.27-2.29-3.67-1.83-.92,1.08,7.25,13.4,11.64,11.87,2.4-.83,3.54-5.75,2.59-9.36-1.61-6.12-9-7.74-10.35-8-4.29-.82-5.22,1-8.4.23a14.16,14.16,0,0,1-1.88-.72c-3.82-1.84-7.62-7.88-8.9-15-1.8-10,1.58-21.22,5.6-21.92,1.17-.2,2.1.55,3.88,0a8,8,0,0,0,4.33-4C39.32,14.42,44.63,4.48,52.31,2.6,59,1,66.76,5.57,69.17,13.82c-8.7-2.49-15.61-.08-17.08,4.05-.8,2.23-.27,5.7,1.67,6.92,3.88,2.43,9.59-6.58,15.41-4.59,5.06,1.72,7.09,10.69,6,11.47-.76.55-2.6-3.31-7.22-4.59-4.17-1.15-9.62.05-10.6,3.06A4.13,4.13,0,0,0,58.09,34c2.42,2.62,7.6-1.57,15.17.51A6.33,6.33,0,0,1,76.39,36c3.09,3.09,3,11-.72,13s-9.9-2.25-9.87-5.61A3.44,3.44,0,0,1,68,40.34c3.58-1.19,11.14,5.54,10.11,12-.48,3-2.45,6.29-4.58,6.38-1.85.07-2.37-2.36-5-2.86S65,57.37,62.75,57.5c-5.55.3-12.47-11.67-10-15.3A3.48,3.48,0,0,1,57,41.26c4.08,2.08,5.23,15.29-.22,18.35-3.73,2.1-10.36-.8-12-5.17-2-5.4,4-11.88,1.43-14.73a2.68,2.68,0,0,0-2.77-.81c-3.09,1.22-.56,10.91-2.88,11.77-2.76,1-10.47-8.49-8.45-14.83.15-.46,1.07-3.33,3.34-4a3.34,3.34,0,0,1,3.33.71c2.29,2.81-2.84,14.21-6.67,13.89-3.3-.29-7.21-9.43-4.22-16,2.69-5.92,10-7.6,14.89-6.59,4.23.88,6.83,3.77,12,9.65a69.37,69.37,0,0,1,7.11,9.65"/><path class="cls-2" d="M64.72,96.43a9.63,9.63,0,0,1,2.19-4.26c.74-.81,2.22-2.45,4.13-2.4,1.36,0,1.58.59,3.06,1.11,1.7.59,2.58-.94,4.38-1,3-.16,7,3.85,6.46,7.22-.32,2.23-2.45,3.51-4,4.46-5.94,3.56-12.21.83-13.09.44-1.66-.76-4.05-1.85-4.06-3.34,0-2.22,5.27-4.54,10-4.56s8.64,2.25,8.53,2.81c-.07.33-1.54-.15-4.31.44-2,.41-2.32.87-3.73.87a9.85,9.85,0,0,1-3.56-1A15.85,15.85,0,0,0,64.72,96.43Z"/><path d="M86,64.13a6.93,6.93,0,0,1-.17.74c-.24.84-.55,1.28-.45,1.36s1.07-1.09,1.54-.88.21,1.49.5,1.54.34-.29.44-.47c.32-.57.23-1,.39-1,.35-.08.93,1.47,1.19,1.4s-.09-1.57.2-1.67,1.07,1.63,1.45,1.51,0-1.86.39-2,1,1.34,1.24,1.25-.12-1.78.16-1.86.89,1.4,1.14,1.32-.26-2,0-2.14,1.12,1.57,1.33,1.49-.44-1.8-.16-1.92.92,1,1.14.9-.33-1.38-.07-1.51.9.77,1.1.65-.36-1.19-.13-1.33.75.54.9.44-.51-1-.86-2.32c-.28-1-.2-1.7-.35-1.72s-.25,1.77-1.26,3.29a7,7,0,0,1-3.67,2.47A11.36,11.36,0,0,1,86,64.13Z"/><path d="M108,20.82v.56a2.55,2.55,0,0,0-1.27.58,2.25,2.25,0,0,0-.57,1.3,17.2,17.2,0,0,0-.14,2.47v6.73a21.08,21.08,0,0,1-.24,3.26,7.27,7.27,0,0,1-.91,2.66,4.9,4.9,0,0,1-2.16,1.89,8.81,8.81,0,0,1-3.84.7,13.77,13.77,0,0,1-2.7-.28,6.47,6.47,0,0,1-2.54-1.06,4.66,4.66,0,0,1-1.46-1.7,7.56,7.56,0,0,1-.67-2.34,25.34,25.34,0,0,1-.16-3.05V23.78a6.11,6.11,0,0,0-.14-1.52,1,1,0,0,0-.56-.67,3.79,3.79,0,0,0-1.28-.21v-.56l2.13.06,2.78,0,2.79,0,2.2-.06v.56a4.75,4.75,0,0,0-1.43.21,1,1,0,0,0-.66.67A5.06,5.06,0,0,0,97,23.78V35.17a8.59,8.59,0,0,0,.39,2.89,2.78,2.78,0,0,0,1.18,1.49,3.79,3.79,0,0,0,1.92.45,4.37,4.37,0,0,0,2.93-.91,5,5,0,0,0,1.51-2.54,14.3,14.3,0,0,0,.45-3.78V26.29a18.74,18.74,0,0,0-.16-2.86,2.13,2.13,0,0,0-.74-1.44,4.15,4.15,0,0,0-1.92-.61v-.56l1.45.06,1.67,0,1.27,0Z"/><path d="M136.47,20.82v.56a2.55,2.55,0,0,0-1.27.58,2.25,2.25,0,0,0-.57,1.3,15.84,15.84,0,0,0-.14,2.47V40.58a6.48,6.48,0,0,0-.91,0,9.8,9.8,0,0,0-1.05,0L120.17,27.07v8a20.44,20.44,0,0,0,.15,2.86,2.06,2.06,0,0,0,.76,1.43A4.57,4.57,0,0,0,123,40v.56c-.37,0-.86-.06-1.45-.07h-2.93a9.55,9.55,0,0,0-1.07.07V40a2.68,2.68,0,0,0,1.29-.6,2.28,2.28,0,0,0,.56-1.29,17.33,17.33,0,0,0,.14-2.46V23.78a6.11,6.11,0,0,0-.14-1.52,1,1,0,0,0-.57-.67,3.88,3.88,0,0,0-1.28-.21v-.56l1.07.06,1.25,0,1.37,0,1.2-.06,11.42,12.06V26.29a20.14,20.14,0,0,0-.16-2.86A2.13,2.13,0,0,0,133,22a4.15,4.15,0,0,0-1.92-.61v-.56l1.45.06,1.67,0,1.27,0Z"/><path d="M157.15,20.43a8.41,8.41,0,0,1,3.21.53,9.49,9.49,0,0,1,2.21,1.28.89.89,0,0,0,.55.25c.36,0,.59-.55.7-1.67h.64c0,.74-.06,1.65-.08,2.72s0,2.49,0,4.26h-.64a14.47,14.47,0,0,0-.68-3.37,4.76,4.76,0,0,0-1.89-2.3,4.84,4.84,0,0,0-1.36-.61,5.54,5.54,0,0,0-1.51-.23,4.1,4.1,0,0,0-2.68.88,6.2,6.2,0,0,0-1.69,2.29,12,12,0,0,0-.89,3.07,20.11,20.11,0,0,0-.27,3.23c0,3.35.41,5.79,1.23,7.34a3.68,3.68,0,0,0,3.27,2.31,3.12,3.12,0,0,0,.78-.08,1.92,1.92,0,0,0,.58-.25,1.28,1.28,0,0,0,.45-.56,2.23,2.23,0,0,0,.14-.84V35.89a7.36,7.36,0,0,0-.21-2,1.4,1.4,0,0,0-.82-.92,5.52,5.52,0,0,0-1.79-.28V32.1l1.56,0,1.93,0h1.84c.89,0,1.72,0,2.47,0l1.83,0v.55a1.08,1.08,0,0,0-.92.45,5.05,5.05,0,0,0-.22,2v5.52h-.56a3.86,3.86,0,0,0-.23-1c-.13-.37-.34-.56-.64-.56a2.77,2.77,0,0,0-.63.11,9.32,9.32,0,0,0-1.27.53,17.55,17.55,0,0,1-2.3.94,7.56,7.56,0,0,1-2.41.4c-3.5,0-6.13-.89-7.87-2.66a10.16,10.16,0,0,1-2.63-7.44,10.56,10.56,0,0,1,1.38-5.47,9.64,9.64,0,0,1,3.83-3.66A11.75,11.75,0,0,1,157.15,20.43Z"/></svg>