<svg id="Layer_1" data-name="Layer 1" xmlns="http://www.w3.org/2000/svg" width="300.91" height="380.44" viewBox="0 0 300.91 380.44"><defs><style>.cls-1,.cls-2,.cls-3{fill:none;stroke:#fff;stroke-miterlimit:10;}.cls-1{stroke-width:3px;}.cls-2{stroke-linecap:round;}.cls-4{fill:#fff;}</style></defs><path class="cls-1" d="M272.31,280.53c-7.64,8.22-52.39,54.79-121.9,52.45-65.57-2.2-106.35-46.34-114.53-55.59q-.08-48-.13-96.09c21.09,11.95,66.58,33.8,127.25,32.57a248,248,0,0,0,109.34-28.22Z"/><path class="cls-1" d="M35.75,154c0-24.48,53-44.33,118.3-44.33S272.34,129.47,272.34,154"/><path class="cls-1" d="M272.35,153c.09,2.84.15,5.72.2,8.62q.18,12.27-.21,23.84"/><path class="cls-1" d="M35.74,153.31c-.1,3.43-.19,6.9-.24,10.41q-.21,14.79.24,28.77"/><path class="cls-2" d="M120.17,271.1a7.06,7.06,0,0,0,3.89-.26c.63-.23,3.54-1.29,3.82-3.77.24-2-1.43-3.79-2.8-4.54a6.28,6.28,0,0,0-6.2.44c-4.07,2.6-5.88,10.39-3.77,15.82.89,2.29,2.64,4.26,1.82,6a2.39,2.39,0,0,1-2.34,1.42c-.87-.19-1.66-1.17-1.47-1.75a.93.93,0,0,1,.94-.52,1,1,0,0,1,.9.8c0,.21-.14.5-.94.91-1.52.8-4.39,1.51-6,0-.21-.17-.65-.57-.57-1a.94.94,0,0,1,1.2-.52,1.26,1.26,0,0,1,.38,1.54,2.14,2.14,0,0,1-3.25.12,2.18,2.18,0,0,1,.23-2.33c.88-1.15,2.85-1,4.07-.25a5.34,5.34,0,0,1,2,3.44c.83,3.26-.53,4.78.46,5.91,1.26,1.41,4.15-.17,5,1.27a2.43,2.43,0,0,1,0,1.92c-.68,2.13-3.15,1.8-5,4.2-.34.43-1.83,2.29-1.27,3.78.68,1.81,3.72,1.42,4,2.75s-2,3.47-4.69,4.2c-4.62,1.28-9.18-2.17-11.57-4a27.46,27.46,0,0,1-6.72-7.59,31.39,31.39,0,0,1-5-11.78c-1.29-7.15.79-11.83-1.2-12.88-1.31-.69-3.19.74-4.57,1.79-5.19,3.93-6.29,5.56-5.66,6,.93.68,10-5.47,7.82-12.78a10,10,0,0,0-2.89-4.21c-2.35-2.23-4.66-9.45-6.61-7.74a3.75,3.75,0,0,0-1,3.18c.52,4,7.08,6,7.78,5,.47-.68-1.25-3.41-3.51-4.72-5-2.92-11.52,1.56-12,1.91-2.81,2-4.61,4.74-4.29,5.15s2.06-1.29,5.67-2.23c2.82-.74,4.18-.37,4.73-.19,1.69.56,3.26,1.91,3.07,2.49-.28.8-3.58-.93-7.36.54a10,10,0,0,0-4.39,3.46c-2.21,3.1-2,6.62-1.84,9.31.25,4.13,1.64,8.6,2.76,8.54s.61-3.54,3.16-5.73c2.1-1.8,5-1.78,5.21-1.3s-1.91,1-4.08,3.46c-1.22,1.36-2.74,3.07-2.67,5.24,0,1.36.93,2.55,2.69,4.93,1.34,1.81,2,2.72,3,3.19,1.89.88,4.54.6,5.8-1,.22-.29.4-.61.83-2.85,1-5.24.63-6.56.41-7.19s-.69-2-1.72-2.24a2.32,2.32,0,0,0-2.5,1.26c-.68,1.38.39,3.25,1.35,4.2,1.31,1.29,2.22.75,3.47,1.88,1.75,1.58.91,3.87,2,4.32,1.78.76,4.34,1.49,5.25-3.74.09-.54,1-6.28-1.47-8.46A3.31,3.31,0,0,1,83,283.9a1.9,1.9,0,0,1,.65-1.73c1.32-.7,5.32,2.37,6,6.22.67,3.62-1.88,6.27-1.15,6.91s4.93-1.59,6.36-5.53c1.65-4.5-.69-9.88-3.91-12.43-.82-.65-2.47-1.73-2.77-1.38-.7.81,5.48,10.13,8.8,9,1.82-.63,2.68-4.36,2-7.08-1.22-4.63-6.84-5.86-7.83-6.05-3.24-.62-4,.78-6.36.17a11,11,0,0,1-1.42-.54c-2.88-1.4-3.83-11-4.8-16.44-1.36-7.6,1.19-16.05,4.24-16.58.88-.15,1.58.41,2.94,0a6.07,6.07,0,0,0,3.27-3c-2.6-7.12,1.42-14.64,7.23-16.07,5-1.24,10.93,2.25,12.75,8.49-6.58-1.88-11.81-.06-12.92,3.07-.6,1.69-.2,4.31,1.27,5.23,2.93,1.84,7.25-5,11.65-3.47,3.83,1.3,5.37,8.09,4.56,8.68-.58.41-2-2.51-5.47-3.48-3.15-.87-7.27,0-8,2.32a3.11,3.11,0,0,0,.54,2.89c1.83,2,5.75-1.18,11.48.39a4.91,4.91,0,0,1,2.37,1.16c2.33,2.34.3,13.41-2.48,14.91s-5.56-6.78-5.54-9.32a2.6,2.6,0,0,1,1.64-2.31c2.71-.91,6.5,9.26,5.72,14.13-.36,2.25-1.85,4.76-3.46,4.83-1.4.05-1.8-1.79-3.77-2.17s-2.7,1.16-4.37,1.25c-4.19.23-7.5-13.89-5.63-16.64a2.63,2.63,0,0,1,3.19-.71c3.09,1.57,2,16.64-2.09,18.95-2.82,1.59-7.84-.6-9.08-3.91-1.53-4.08,4.94-14.06,3-16.21a2,2,0,0,0-2.1-.61c-2.34.92-2.36,13.32-4.11,14-2.09.77-6-11.49-4.46-16.29.11-.35.8-2.52,2.52-3A2.52,2.52,0,0,1,86,242c1.74,2.13-2.14,10.75-5,10.5-2.5-.21-5.46-7.13-3.2-12.1,2-4.48,7.57-5.75,11.27-5,3.2.67,5.16,2.86,9.07,7.3a53.13,53.13,0,0,1,5.38,7.3"/><path class="cls-3" d="M103.72,295.37a7.15,7.15,0,0,1,1.66-3.22c.55-.62,1.67-1.85,3.12-1.82,1,0,1.19.45,2.31.84,1.29.45,2-.71,3.32-.78,2.3-.12,5.25,2.91,4.88,5.47-.24,1.68-1.85,2.65-3.05,3.37-4.5,2.69-9.24.63-9.9.33C104.8,299,103,298.17,103,297c0-1.68,4-3.44,7.52-3.45s6.54,1.7,6.45,2.12c0,.25-1.16-.11-3.26.33-1.47.31-1.75.67-2.82.67a7.56,7.56,0,0,1-2.69-.73A12,12,0,0,0,103.72,295.37Z"/><path class="cls-4" d="M119.84,270.94a3.84,3.84,0,0,1-.12.56c-.18.63-.42,1-.35,1s.81-.83,1.17-.67.16,1.13.38,1.17.25-.22.33-.36c.25-.43.18-.75.3-.78.27-.06.7,1.12.9,1.06s-.07-1.19.15-1.26.81,1.23,1.09,1.14,0-1.41.3-1.49.73,1,.94,1-.09-1.35.12-1.41.67,1.06.86,1-.2-1.54,0-1.62.85,1.19,1,1.12-.34-1.36-.13-1.45.7.76.87.68-.25-1,0-1.14.68.58.83.5-.28-.91-.1-1,.56.41.68.34-.38-.74-.65-1.75c-.21-.79-.15-1.29-.27-1.3s-.18,1.34-.95,2.48a5.27,5.27,0,0,1-2.78,1.87A8.57,8.57,0,0,1,119.84,270.94Z"/><path class="cls-4" d="M135.7,280a2.3,2.3,0,0,1,2.43-2.4,2.25,2.25,0,0,1,1.28.34v.6a2.17,2.17,0,0,0-1.25-.38,1.84,1.84,0,1,0,0,3.67,2.1,2.1,0,0,0,1.25-.38v.61a2.33,2.33,0,0,1-1.28.33A2.29,2.29,0,0,1,135.7,280Z"/><path class="cls-4" d="M142.12,280a2.4,2.4,0,1,1,2.39,2.39A2.29,2.29,0,0,1,142.12,280Zm4.18,0a1.79,1.79,0,1,0-1.79,1.84A1.72,1.72,0,0,0,146.3,280Z"/><path class="cls-4" d="M149.9,277.68h.59v4.07h2.57v.55H149.9Z"/><path class="cls-4" d="M155.8,277.68h.6v4.07H159v.55H155.8Z"/><path class="cls-4" d="M163.13,277.68h.54l1.94,4.62H165l-.47-1.1h-2.25l-.46,1.1h-.62Zm1.15,3-.89-2.21-.9,2.21Z"/><path class="cls-4" d="M167.86,280a2.3,2.3,0,0,1,2.46-2.4,2.51,2.51,0,0,1,1.38.36v.6a2.31,2.31,0,0,0-1.34-.4,1.84,1.84,0,1,0-.06,3.68,2.15,2.15,0,0,0,1.12-.29V280.3h-1.27v-.54H172v2a2.44,2.44,0,0,1-1.7.59A2.29,2.29,0,0,1,167.86,280Z"/><path class="cls-4" d="M175,277.68h3.44v.54h-2.85v1.43h2.51v.54h-2.51v1.56h2.92v.55H175Z"/><path class="cls-4" d="M181.49,277.68h.59l2.75,3.65v-3.65h.57v4.62h-.56l-2.77-3.73v3.73h-.58Z"/><path class="cls-4" d="M193.58,277.68h.54l1.95,4.62h-.64l-.46-1.1h-2.26l-.46,1.1h-.61Zm1.16,3-.9-2.21-.89,2.21Z"/><path class="cls-4" d="M198.31,280a2.47,2.47,0,0,1,3.72-2.06v.6a2.2,2.2,0,0,0-1.26-.38,1.84,1.84,0,1,0,0,3.67,2.13,2.13,0,0,0,1.26-.38v.61a2.36,2.36,0,0,1-1.29.33A2.29,2.29,0,0,1,198.31,280Z"/><path class="cls-4" d="M206.4,277.68h.54l1.95,4.62h-.64l-.46-1.1h-2.26l-.46,1.1h-.62Zm1.16,3-.9-2.21-.9,2.21Z"/><path class="cls-4" d="M211.59,277.68h.59v4.62h-.59Z"/><path class="cls-4" d="M218.7,280a2.47,2.47,0,0,1,3.72-2.06v.6a2.2,2.2,0,0,0-1.26-.38,1.84,1.84,0,1,0,0,3.67,2.13,2.13,0,0,0,1.26-.38v.61a2.36,2.36,0,0,1-1.29.33A2.29,2.29,0,0,1,218.7,280Z"/><path class="cls-4" d="M225.34,277.68h1.95c1.07,0,1.62.45,1.62,1.35a1.22,1.22,0,0,1-1.1,1.31l1.44,2h-.74l-1.41-1.92h-1.16v1.92h-.6Zm1.95,2.15c.7,0,1-.24,1-.8s-.32-.81-1-.81h-1.35v1.61Z"/><path class="cls-4" d="M232,277.68h3.44v.54h-2.84v1.43h2.5v.54h-2.5v1.56h2.91v.55H232Z"/><path class="cls-4" d="M238.51,277.68h.64l1.77,3,1.76-3h.65v4.62h-.59v-3.64l-1.66,2.81h-.35l-1.64-2.78v3.61h-.58Z"/><path class="cls-4" d="M246.66,277.68h3.44v.54h-2.84v1.43h2.51v.54h-2.51v1.56h2.91v.55h-3.51Z"/><path class="cls-4" d="M163.62,234v.8a3.63,3.63,0,0,0-1.83.84,3.29,3.29,0,0,0-.82,1.86,24.72,24.72,0,0,0-.19,3.54v9.64a30.26,30.26,0,0,1-.35,4.68,10.17,10.17,0,0,1-1.3,3.8,7.16,7.16,0,0,1-3.1,2.72,12.78,12.78,0,0,1-5.5,1,20.6,20.6,0,0,1-3.87-.4A9.59,9.59,0,0,1,143,261a6.84,6.84,0,0,1-2.08-2.44,10.34,10.34,0,0,1-1-3.36,37.8,37.8,0,0,1-.23-4.36V238.25a8.18,8.18,0,0,0-.21-2.18,1.39,1.39,0,0,0-.79-1,5.12,5.12,0,0,0-1.85-.3V234l3.06.08c1.27,0,2.6,0,4,0s2.73,0,4,0l3.16-.08v.8a6.46,6.46,0,0,0-2.06.3,1.5,1.5,0,0,0-.94,1,7.27,7.27,0,0,0-.23,2.18v16.32a12.34,12.34,0,0,0,.55,4.14,4,4,0,0,0,1.68,2.14,5.59,5.59,0,0,0,2.77.64,6.27,6.27,0,0,0,4.19-1.3,7,7,0,0,0,2.16-3.64,20.49,20.49,0,0,0,.65-5.42v-9.28a27.85,27.85,0,0,0-.23-4.1,3,3,0,0,0-1.06-2.06,5.82,5.82,0,0,0-2.75-.88V234l2.07.08c.86,0,1.66,0,2.4,0s1.22,0,1.83,0Z"/><path class="cls-4" d="M204.41,234v.8a3.59,3.59,0,0,0-1.82.84,3.29,3.29,0,0,0-.82,1.86,24.45,24.45,0,0,0-.2,3.54v21.28a8.81,8.81,0,0,0-1.3-.08,13.5,13.5,0,0,0-1.5.08L181.05,243v11.52a29.85,29.85,0,0,0,.22,4.1,3,3,0,0,0,1.08,2,6.57,6.57,0,0,0,2.74.9v.8c-.53-.06-1.22-.09-2.08-.1s-1.65,0-2.4,0c-.58,0-1.18,0-1.8,0a12,12,0,0,0-1.52.1v-.8a3.9,3.9,0,0,0,1.84-.86,3.22,3.22,0,0,0,.8-1.86,23.23,23.23,0,0,0,.2-3.52v-17a8.28,8.28,0,0,0-.2-2.18,1.36,1.36,0,0,0-.82-1,5.06,5.06,0,0,0-1.82-.3V234l1.52.08c.62,0,1.22,0,1.8,0s1.32,0,2,0l1.72-.08,16.36,17.28v-9.44a28.13,28.13,0,0,0-.22-4.1,3,3,0,0,0-1.06-2.06,5.83,5.83,0,0,0-2.76-.88V234l2.08.08c.86,0,1.66,0,2.4,0s1.22,0,1.82,0Z"/><path class="cls-4" d="M234.05,233.45a11.85,11.85,0,0,1,4.6.76,13.12,13.12,0,0,1,3.16,1.84,1.34,1.34,0,0,0,.8.36c.51,0,.84-.8,1-2.4h.92q-.08,1.59-.12,3.9c0,1.53,0,3.56,0,6.1h-.92a19.62,19.62,0,0,0-1-4.82,7,7,0,0,0-4.66-4.18,7.54,7.54,0,0,0-2.16-.32,5.84,5.84,0,0,0-3.84,1.26,8.86,8.86,0,0,0-2.42,3.28,17.73,17.73,0,0,0-1.28,4.4,29.56,29.56,0,0,0-.38,4.62q0,7.2,1.76,10.52t4.68,3.32a4.63,4.63,0,0,0,1.12-.12,2.67,2.67,0,0,0,.84-.36,1.83,1.83,0,0,0,.64-.8,3,3,0,0,0,.2-1.2v-4a10.5,10.5,0,0,0-.3-2.92,2,2,0,0,0-1.18-1.32,7.34,7.34,0,0,0-2.56-.4v-.8l2.24.06,2.76,0,2.64,0c1.28,0,2.46,0,3.54,0l2.62-.08v.8a1.54,1.54,0,0,0-1.32.64,7.26,7.26,0,0,0-.32,2.8v7.92h-.8a5.06,5.06,0,0,0-.32-1.48c-.18-.54-.49-.8-.92-.8a3.55,3.55,0,0,0-.9.16,12,12,0,0,0-1.82.76,28.77,28.77,0,0,1-3.3,1.34,11.06,11.06,0,0,1-3.46.58q-7.51,0-11.28-3.82t-3.76-10.66a15.15,15.15,0,0,1,2-7.84,13.82,13.82,0,0,1,5.48-5.24A16.71,16.71,0,0,1,234.05,233.45Z"/></svg>