<svg id="Layer_1" data-name="Layer 1" xmlns="http://www.w3.org/2000/svg" width="184.59" height="271.55" viewBox="0 0 184.59 271.55"><defs><style>.cls-1{fill:none;stroke:#000;stroke-miterlimit:10;stroke-width:3px;}.cls-2{isolation:isolate;}</style></defs><path class="cls-1" d="M146.67,157c0,55.09,7.69,82.21-16.16,89-8.4,2.39-25.66,3.67-40,3.45-2.26,0-19.21-.3-28.07-2.47C37.65,241,40.4,211.27,38.65,157c-1.64-50.86-5.59-72.4,17.92-81.5C73,69.16,92.66,69.65,92.66,69.65s18.5.47,34.45,7.39C152.07,87.88,146.72,111.42,146.67,157Z"/><g class="cls-2"><path d="M61.66,143.72h5.91c3.1,0,4.7,1.31,4.7,3.92,0,2.3-1.26,3.61-3.69,3.88l4.73,6.12H71.77l-4.69-6.07H62.89v6.07H61.66Zm5.91,6.73c2.36,0,3.46-.91,3.46-2.81s-1.1-2.8-3.46-2.8H62.89v5.61Z"/><path d="M75.48,143.72H85.75v1.12h-9v5.06h8V151h-8v5.5H86v1.12H75.48Z"/><path d="M88.76,143.72h1.16l9.28,11.87V143.72h1.18v13.92H99.3l-9.36-12v12H88.76Z"/><path d="M103.12,156.37v-1.43a6.85,6.85,0,0,0,5,1.81c2.57,0,4-1,4-2.82,0-1.42-.88-2.2-3.1-2.68l-2.3-.51c-2.4-.52-3.45-1.66-3.45-3.43,0-2.39,1.89-3.84,5.06-3.84a6.94,6.94,0,0,1,4.32,1.22v1.39a6.17,6.17,0,0,0-4.34-1.47c-2.41,0-3.82,1-3.82,2.63,0,1.27.82,2,3,2.45l2.36.5c2.51.53,3.55,1.8,3.55,3.67,0,2.58-1.92,4-5.25,4A7.48,7.48,0,0,1,103.12,156.37Z"/><path d="M116.09,143.72h10.27v1.12h-9v5.06h8V151h-8v5.5h9.26v1.12H116.09Z"/><path d="M59.73,169H61l4.87,12,4.88-12H72l-5.63,13.92h-1Z"/><path d="M79.71,169h9.66v1.12H81.25v5.06h7.11v1.12H81.25v5.5h8.33v1.12H80v-3.71H74l-2.55,3.71H70Zm.32,9.09v-7.69l-5.27,7.69Z"/><path d="M91.52,181.68v-1.44a6.87,6.87,0,0,0,5,1.82c2.57,0,4-1,4-2.83,0-1.41-.89-2.19-3.1-2.68l-2.3-.5c-2.41-.53-3.46-1.67-3.46-3.44,0-2.38,1.9-3.84,5.06-3.84A6.92,6.92,0,0,1,101,170v1.4a6.17,6.17,0,0,0-4.34-1.48c-2.41,0-3.82,1-3.82,2.63,0,1.27.82,2,2.95,2.45l2.37.51c2.5.52,3.54,1.79,3.54,3.67,0,2.57-1.92,4-5.25,4A7.49,7.49,0,0,1,91.52,181.68Z"/><path d="M104.49,169h1.22v6.44l7.51-6.44H115l-7.82,6.71,7.93,7.21h-1.78l-7.57-6.89v6.89h-1.22Z"/><path d="M117,169h10.27v1.12h-9v5.06h8.06v1.12h-8.06v5.5h9.26v1.12H117Z"/></g><path class="cls-1" d="M119,67.92A68.41,68.41,0,0,0,64.81,67L65.51,27a99.77,99.77,0,0,1,54.18.95Z"/></svg>